<?xml version="1.0" encoding="utf-8"?>
<!-- Generator: Adobe Illustrator 18.0.0, SVG Export Plug-In . SVG Version: 6.00 Build 0)  -->
<!DOCTYPE svg PUBLIC "-//W3C//DTD SVG 1.1//EN" "http://www.w3.org/Graphics/SVG/1.1/DTD/svg11.dtd">
<svg version="1.1" id="图层_1" xmlns="http://www.w3.org/2000/svg" xmlns:xlink="http://www.w3.org/1999/xlink" x="0px" y="0px"
	 viewBox="0 0 678 173" enable-background="new 0 0 678 173" xml:space="preserve">
<g>
	<path fill-rule="evenodd" clip-rule="evenodd" fill="#fff" d="M181.495,125.255h7.723c1.52,0,2.749,0.208,3.689,0.619
		c0.936,0.415,1.712,1.007,2.323,1.778c0.611,0.775,1.053,1.672,1.331,2.698c0.274,1.026,0.411,2.111,0.411,3.259
		c0,1.798-0.204,3.192-0.615,4.183c-0.407,0.991-0.975,1.821-1.704,2.487c-0.725,0.67-1.504,1.116-2.338,1.339
		c-1.139,0.306-2.174,0.458-3.098,0.458h-7.723V125.255L181.495,125.255z M186.692,129.066v9.188h1.273
		c1.089,0,1.86-0.118,2.319-0.36c0.458-0.239,0.819-0.662,1.081-1.261c0.258-0.599,0.388-1.574,0.388-2.922
		c0-1.782-0.29-3-0.869-3.658c-0.584-0.658-1.547-0.987-2.894-0.987H186.692L186.692,129.066z M205.898,133.836l-4.461-0.47
		c0.168-0.779,0.411-1.394,0.729-1.841c0.317-0.447,0.772-0.835,1.371-1.163c0.427-0.239,1.018-0.423,1.766-0.553
		c0.748-0.129,1.559-0.196,2.432-0.196c1.398,0,2.526,0.078,3.372,0.235c0.85,0.156,1.559,0.486,2.123,0.983
		c0.4,0.345,0.713,0.83,0.944,1.461c0.227,0.635,0.34,1.234,0.34,1.81v5.381c0,0.572,0.039,1.022,0.11,1.347
		c0.075,0.325,0.231,0.74,0.478,1.246h-4.383c-0.176-0.313-0.29-0.552-0.345-0.717c-0.055-0.165-0.106-0.423-0.161-0.776
		c-0.611,0.591-1.222,1.01-1.825,1.261c-0.827,0.337-1.786,0.505-2.879,0.505c-1.453,0-2.558-0.337-3.313-1.011
		c-0.752-0.67-1.128-1.5-1.128-2.487c0-0.928,0.27-1.688,0.815-2.283c0.545-0.599,1.543-1.042,3.004-1.332
		c1.755-0.353,2.891-0.599,3.411-0.74c0.517-0.141,1.069-0.329,1.649-0.556c0-0.576-0.117-0.975-0.353-1.206
		c-0.239-0.227-0.654-0.345-1.253-0.345c-0.764,0-1.335,0.125-1.719,0.368C206.325,132.951,206.082,133.312,205.898,133.836
		L205.898,133.836z M209.948,136.292c-0.642,0.231-1.312,0.435-2.005,0.611c-0.948,0.251-1.551,0.501-1.802,0.744
		c-0.262,0.255-0.392,0.541-0.392,0.862c0,0.368,0.129,0.666,0.384,0.901c0.258,0.231,0.634,0.348,1.132,0.348
		c0.521,0,1.003-0.125,1.453-0.376c0.447-0.255,0.764-0.564,0.952-0.924c0.188-0.364,0.278-0.838,0.278-1.418V136.292
		L209.948,136.292z M219.723,125.255h4.684v16.822h-4.684V125.255L219.723,125.255z M229.807,125.255h4.673v3.18h-4.673V125.255
		L229.807,125.255z M229.807,129.892h4.673v12.184h-4.673V129.892L229.807,129.892z M243.965,133.836l-4.461-0.47
		c0.168-0.779,0.411-1.394,0.729-1.841c0.317-0.447,0.772-0.835,1.371-1.163c0.427-0.239,1.018-0.423,1.766-0.553
		c0.748-0.129,1.559-0.196,2.432-0.196c1.398,0,2.526,0.078,3.372,0.235c0.85,0.156,1.559,0.486,2.122,0.983
		c0.399,0.345,0.713,0.83,0.944,1.461c0.227,0.635,0.341,1.234,0.341,1.81v5.381c0,0.572,0.039,1.022,0.11,1.347
		c0.074,0.325,0.231,0.74,0.478,1.246h-4.382c-0.176-0.313-0.29-0.552-0.345-0.717c-0.055-0.165-0.106-0.423-0.161-0.776
		c-0.611,0.591-1.222,1.01-1.825,1.261c-0.827,0.337-1.786,0.505-2.879,0.505c-1.453,0-2.558-0.337-3.314-1.011
		c-0.752-0.67-1.128-1.5-1.128-2.487c0-0.928,0.27-1.688,0.815-2.283c0.544-0.599,1.543-1.042,3.004-1.332
		c1.755-0.353,2.89-0.599,3.411-0.74c0.517-0.141,1.069-0.329,1.649-0.556c0-0.576-0.118-0.975-0.353-1.206
		c-0.239-0.227-0.654-0.345-1.253-0.345c-0.764,0-1.335,0.125-1.719,0.368C244.392,132.951,244.15,133.312,243.965,133.836
		L243.965,133.836z M248.015,136.292c-0.642,0.231-1.312,0.435-2.005,0.611c-0.948,0.251-1.551,0.501-1.802,0.744
		c-0.262,0.255-0.392,0.541-0.392,0.862c0,0.368,0.129,0.666,0.384,0.901c0.258,0.231,0.635,0.348,1.132,0.348
		c0.521,0,1.003-0.125,1.453-0.376c0.447-0.255,0.764-0.564,0.952-0.924c0.188-0.364,0.278-0.838,0.278-1.418V136.292
		L248.015,136.292z M257.63,129.892h4.351v1.982c0.65-0.811,1.308-1.386,1.974-1.735c0.666-0.348,1.477-0.525,2.432-0.525
		c1.292,0,2.303,0.388,3.035,1.155c0.728,0.768,1.093,1.955,1.093,3.56v7.747h-4.692v-6.701c0-0.764-0.141-1.304-0.423-1.622
		c-0.286-0.321-0.681-0.478-1.194-0.478c-0.564,0-1.026,0.216-1.375,0.642c-0.352,0.427-0.529,1.198-0.529,2.307v5.851h-4.672
		V129.892L257.63,129.892z M293.077,125.255h5.189v10.03c0,0.995-0.157,1.931-0.466,2.816c-0.31,0.881-0.795,1.657-1.457,2.318
		c-0.662,0.662-1.355,1.124-2.084,1.394c-1.01,0.372-2.221,0.56-3.639,0.56c-0.818,0-1.712-0.055-2.679-0.172
		c-0.967-0.114-1.774-0.341-2.424-0.681c-0.65-0.341-1.246-0.826-1.786-1.453c-0.54-0.627-0.909-1.273-1.108-1.939
		c-0.321-1.069-0.482-2.017-0.482-2.843v-10.03h5.19v10.269c0,0.921,0.254,1.637,0.76,2.15c0.509,0.517,1.214,0.775,2.119,0.775
		c0.893,0,1.598-0.255,2.107-0.764c0.505-0.505,0.76-1.23,0.76-2.162V125.255L293.077,125.255z M303.644,129.892h4.351v1.982
		c0.65-0.811,1.308-1.386,1.974-1.735c0.666-0.348,1.477-0.525,2.432-0.525c1.293,0,2.303,0.388,3.035,1.155
		c0.728,0.768,1.093,1.955,1.093,3.56v7.747h-4.692v-6.701c0-0.764-0.141-1.304-0.423-1.622c-0.286-0.321-0.682-0.478-1.195-0.478
		c-0.564,0-1.026,0.216-1.375,0.642c-0.352,0.427-0.529,1.198-0.529,2.307v5.851h-4.672V129.892L303.644,129.892z M321.738,125.255
		h4.672v3.18h-4.672V125.255L321.738,125.255z M321.738,129.892h4.672v12.184h-4.672V129.892L321.738,129.892z M330.252,129.892
		h4.865l2.366,7.72l2.444-7.72h4.715l-5.177,12.184h-4.14L330.252,129.892L330.252,129.892z M361.161,137.142H351.8
		c0.082,0.752,0.286,1.308,0.607,1.676c0.451,0.529,1.042,0.791,1.766,0.791c0.458,0,0.897-0.114,1.308-0.345
		c0.254-0.145,0.525-0.399,0.815-0.768l4.602,0.423c-0.705,1.226-1.551,2.103-2.546,2.636c-0.995,0.529-2.421,0.795-4.281,0.795
		c-1.613,0-2.882-0.227-3.811-0.681c-0.924-0.454-1.692-1.179-2.299-2.17c-0.607-0.991-0.912-2.154-0.912-3.494
		c0-1.904,0.611-3.447,1.829-4.622c1.222-1.179,2.906-1.77,5.056-1.77c1.742,0,3.121,0.266,4.128,0.795
		c1.011,0.525,1.783,1.293,2.307,2.291c0.529,1.003,0.791,2.307,0.791,3.912V137.142L361.161,137.142z M356.414,134.906
		c-0.094-0.905-0.337-1.551-0.729-1.939c-0.396-0.392-0.913-0.587-1.555-0.587c-0.744,0-1.335,0.298-1.782,0.885
		c-0.282,0.368-0.462,0.912-0.537,1.641H356.414L356.414,134.906z M365.602,129.892h4.371v1.993
		c0.423-0.861,0.858-1.457,1.304-1.782c0.447-0.325,0.999-0.49,1.657-0.49c0.689,0,1.441,0.215,2.26,0.642l-1.445,3.329
		c-0.548-0.231-0.987-0.345-1.308-0.345c-0.611,0-1.085,0.254-1.422,0.756c-0.482,0.713-0.725,2.044-0.725,3.995v4.085h-4.692
		V129.892L365.602,129.892z M377.989,138.704l4.637-0.438c0.192,0.552,0.458,0.948,0.803,1.183c0.345,0.239,0.803,0.356,1.379,0.356
		c0.627,0,1.112-0.133,1.457-0.403c0.266-0.196,0.4-0.447,0.4-0.744c0-0.337-0.177-0.595-0.525-0.779
		c-0.255-0.13-0.924-0.29-2.009-0.482c-1.621-0.286-2.749-0.545-3.38-0.788c-0.631-0.243-1.163-0.65-1.594-1.222
		c-0.435-0.572-0.65-1.226-0.65-1.962c0-0.803,0.235-1.496,0.701-2.076c0.466-0.583,1.108-1.018,1.927-1.304
		c0.819-0.286,1.915-0.431,3.294-0.431c1.453,0,2.526,0.113,3.219,0.333c0.693,0.223,1.269,0.568,1.731,1.034
		c0.462,0.466,0.846,1.097,1.155,1.892l-4.43,0.439c-0.118-0.392-0.306-0.677-0.576-0.862c-0.368-0.247-0.811-0.368-1.331-0.368
		c-0.525,0-0.912,0.094-1.151,0.282c-0.243,0.188-0.361,0.415-0.361,0.681c0,0.302,0.153,0.525,0.458,0.678s0.971,0.29,1.997,0.415
		c1.551,0.176,2.706,0.419,3.462,0.732c0.76,0.313,1.339,0.76,1.739,1.343c0.403,0.58,0.603,1.218,0.603,1.915
		c0,0.705-0.212,1.39-0.638,2.056c-0.423,0.666-1.093,1.194-2.005,1.586c-0.917,0.396-2.162,0.592-3.736,0.592
		c-2.225,0-3.811-0.317-4.755-0.952C378.867,140.777,378.259,139.872,377.989,138.704L377.989,138.704z M395.59,125.255h4.672v3.18
		h-4.672V125.255L395.59,125.255z M395.59,129.892h4.672v12.184h-4.672V129.892L395.59,129.892z M411.127,125.255v4.637h2.569v3.407
		h-2.569v4.324c0,0.521,0.051,0.866,0.149,1.034c0.152,0.258,0.419,0.392,0.803,0.392c0.345,0,0.826-0.102,1.445-0.301l0.345,3.227
		c-1.155,0.251-2.232,0.376-3.235,0.376c-1.163,0-2.021-0.149-2.569-0.446c-0.552-0.298-0.96-0.752-1.222-1.359
		c-0.266-0.607-0.396-1.594-0.396-2.957V133.3h-1.723v-3.407h1.723v-2.24L411.127,125.255L411.127,125.255z M416.817,129.892h4.931
		l2.514,8.111l2.33-8.111h4.602l-4.833,13.023c-0.548,1.484-1.112,2.487-1.688,3.004c-0.811,0.737-2.044,1.104-3.705,1.104
		c-0.674,0-1.712-0.094-3.121-0.278l-0.364-3.259c0.669,0.215,1.422,0.321,2.248,0.321c0.548,0,0.995-0.125,1.335-0.376
		c0.341-0.255,0.63-0.705,0.865-1.355L416.817,129.892L416.817,129.892z M440.695,133.676c0-2.746,0.768-4.884,2.295-6.411
		c1.531-1.531,3.662-2.295,6.392-2.295c2.8,0,4.958,0.752,6.474,2.256c1.512,1.5,2.271,3.607,2.271,6.314
		c0,1.966-0.333,3.58-0.995,4.837c-0.662,1.257-1.617,2.236-2.867,2.937c-1.253,0.701-2.808,1.05-4.676,1.05
		c-1.896,0-3.466-0.302-4.712-0.905c-1.242-0.607-2.248-1.563-3.023-2.871C441.083,137.279,440.695,135.642,440.695,133.676
		L440.695,133.676z M445.896,133.699c0,1.7,0.313,2.918,0.944,3.662c0.63,0.74,1.492,1.112,2.577,1.112
		c1.116,0,1.982-0.364,2.593-1.089c0.611-0.729,0.92-2.033,0.92-3.913c0-1.586-0.321-2.742-0.96-3.474
		c-0.638-0.729-1.504-1.093-2.6-1.093c-1.046,0-1.888,0.368-2.522,1.112C446.213,130.758,445.896,131.988,445.896,133.699
		L445.896,133.699z M468.063,129.892h2.225v3.419h-2.225v8.765h-4.684v-8.765h-1.743v-3.419h1.743v-0.553
		c0-0.497,0.055-1.046,0.161-1.641c0.11-0.595,0.309-1.085,0.603-1.461c0.294-0.38,0.709-0.685,1.237-0.92
		c0.533-0.231,1.312-0.349,2.338-0.349c0.819,0,2.006,0.094,3.568,0.286l-0.517,2.824c-0.56-0.094-1.011-0.137-1.355-0.137
		c-0.419,0-0.721,0.071-0.905,0.212c-0.184,0.141-0.313,0.364-0.392,0.67C468.079,128.992,468.063,129.348,468.063,129.892
		L468.063,129.892z M481.022,125.255h15.799v4.155h-5.303v12.666h-5.197v-12.666h-5.299V125.255L481.022,125.255z M513.227,137.142
		h-9.361c0.082,0.752,0.286,1.308,0.607,1.676c0.45,0.529,1.042,0.791,1.767,0.791c0.458,0,0.897-0.114,1.308-0.345
		c0.255-0.145,0.525-0.399,0.815-0.768l4.602,0.423c-0.705,1.226-1.551,2.103-2.546,2.636c-0.995,0.529-2.42,0.795-4.281,0.795
		c-1.614,0-2.883-0.227-3.811-0.681c-0.924-0.454-1.692-1.179-2.299-2.17c-0.607-0.991-0.913-2.154-0.913-3.494
		c0-1.904,0.611-3.447,1.829-4.622c1.222-1.179,2.906-1.77,5.056-1.77c1.743,0,3.121,0.266,4.128,0.795
		c1.01,0.525,1.782,1.293,2.307,2.291c0.529,1.003,0.791,2.307,0.791,3.912V137.142L513.227,137.142z M508.48,134.906
		c-0.094-0.905-0.337-1.551-0.728-1.939c-0.396-0.392-0.913-0.587-1.555-0.587c-0.744,0-1.336,0.298-1.782,0.885
		c-0.282,0.368-0.462,0.912-0.537,1.641H508.48L508.48,134.906z M526.711,137.314l4.437,0.505c-0.243,0.924-0.646,1.727-1.202,2.405
		c-0.56,0.677-1.273,1.202-2.142,1.578c-0.865,0.372-1.97,0.56-3.31,0.56c-1.292,0-2.37-0.122-3.227-0.361
		c-0.862-0.243-1.602-0.63-2.221-1.171c-0.623-0.541-1.108-1.171-1.457-1.899c-0.352-0.725-0.529-1.688-0.529-2.891
		c0-1.253,0.212-2.299,0.643-3.133c0.313-0.611,0.74-1.159,1.284-1.645c0.545-0.485,1.101-0.85,1.677-1.085
		c0.909-0.376,2.076-0.564,3.497-0.564c1.99,0,3.505,0.356,4.551,1.069c1.042,0.709,1.778,1.751,2.197,3.121l-4.395,0.584
		c-0.137-0.521-0.388-0.913-0.752-1.175c-0.364-0.266-0.85-0.396-1.465-0.396c-0.772,0-1.398,0.278-1.876,0.83
		c-0.478,0.556-0.717,1.394-0.717,2.519c0,1.002,0.239,1.762,0.713,2.283c0.474,0.521,1.077,0.779,1.813,0.779
		c0.611,0,1.124-0.157,1.543-0.47C526.191,138.446,526.504,137.964,526.711,137.314L526.711,137.314z M535.139,125.255h4.673v6.196
		c0.634-0.658,1.265-1.128,1.892-1.41c0.627-0.286,1.371-0.427,2.229-0.427c1.269,0,2.268,0.388,3,1.159
		c0.728,0.776,1.093,1.958,1.093,3.556v7.747h-4.692v-6.701c0-0.764-0.141-1.304-0.423-1.622c-0.286-0.321-0.682-0.478-1.195-0.478
		c-0.564,0-1.026,0.216-1.375,0.642c-0.353,0.427-0.529,1.198-0.529,2.307v5.851h-4.673V125.255L535.139,125.255z M553.061,129.892
		h4.352v1.982c0.65-0.811,1.308-1.386,1.974-1.735c0.666-0.348,1.477-0.525,2.432-0.525c1.292,0,2.303,0.388,3.035,1.155
		c0.728,0.768,1.093,1.955,1.093,3.56v7.747h-4.692v-6.701c0-0.764-0.141-1.304-0.423-1.622c-0.286-0.321-0.682-0.478-1.195-0.478
		c-0.564,0-1.026,0.216-1.375,0.642c-0.353,0.427-0.529,1.198-0.529,2.307v5.851h-4.673V129.892L553.061,129.892z M570.411,136.018
		c0-1.856,0.626-3.392,1.88-4.594c1.257-1.206,2.949-1.809,5.084-1.809c2.44,0,4.285,0.709,5.53,2.123
		c1.002,1.14,1.504,2.546,1.504,4.215c0,1.872-0.622,3.407-1.864,4.606c-1.242,1.195-2.961,1.794-5.158,1.794
		c-1.958,0-3.541-0.497-4.751-1.492C571.151,139.629,570.411,138.015,570.411,136.018L570.411,136.018z M575.091,136.006
		c0,1.089,0.219,1.891,0.662,2.409c0.439,0.521,0.991,0.783,1.657,0.783c0.673,0,1.226-0.258,1.656-0.771
		c0.435-0.513,0.65-1.332,0.65-2.468c0-1.054-0.219-1.841-0.654-2.358c-0.435-0.513-0.975-0.772-1.617-0.772
		c-0.682,0-1.245,0.262-1.688,0.783C575.314,134.138,575.091,134.937,575.091,136.006L575.091,136.006z M589.065,125.255h4.684
		v16.822h-4.684V125.255L589.065,125.255z M598.406,136.018c0-1.856,0.626-3.392,1.88-4.594c1.257-1.206,2.949-1.809,5.084-1.809
		c2.44,0,4.285,0.709,5.53,2.123c1.003,1.14,1.504,2.546,1.504,4.215c0,1.872-0.623,3.407-1.864,4.606
		c-1.241,1.195-2.961,1.794-5.158,1.794c-1.958,0-3.54-0.497-4.75-1.492C599.146,139.629,598.406,138.015,598.406,136.018
		L598.406,136.018z M603.086,136.006c0,1.089,0.219,1.891,0.662,2.409c0.439,0.521,0.991,0.783,1.657,0.783
		c0.674,0,1.226-0.258,1.657-0.771c0.435-0.513,0.65-1.332,0.65-2.468c0-1.054-0.219-1.841-0.654-2.358
		c-0.435-0.513-0.975-0.772-1.618-0.772c-0.681,0-1.245,0.262-1.688,0.783C603.309,134.138,603.086,134.937,603.086,136.006
		L603.086,136.006z M625.378,129.892h4.375v11.507l0.012,0.54c0,0.764-0.164,1.492-0.49,2.185c-0.325,0.693-0.756,1.253-1.296,1.68
		c-0.541,0.431-1.226,0.74-2.052,0.928c-0.83,0.192-1.782,0.29-2.851,0.29c-2.448,0-4.132-0.368-5.044-1.104
		c-0.913-0.732-1.371-1.715-1.371-2.945c0-0.157,0.008-0.36,0.023-0.623l4.531,0.517c0.114,0.423,0.29,0.713,0.529,0.873
		c0.345,0.235,0.775,0.357,1.296,0.357c0.674,0,1.175-0.18,1.508-0.541c0.333-0.361,0.497-0.987,0.497-1.884v-1.845
		c-0.458,0.541-0.916,0.936-1.375,1.183c-0.721,0.38-1.496,0.572-2.33,0.572c-1.629,0-2.945-0.713-3.948-2.134
		c-0.709-1.011-1.065-2.346-1.065-4.003c0-1.899,0.458-3.345,1.374-4.339c0.92-0.995,2.119-1.492,3.603-1.492
		c0.952,0,1.731,0.161,2.346,0.482c0.619,0.321,1.195,0.854,1.727,1.598V129.892L625.378,129.892z M620.984,135.799
		c0,0.881,0.188,1.535,0.564,1.958c0.376,0.423,0.87,0.638,1.48,0.638c0.58,0,1.069-0.223,1.461-0.662
		c0.395-0.439,0.591-1.104,0.591-1.99c0-0.889-0.207-1.567-0.619-2.036c-0.411-0.47-0.916-0.705-1.516-0.705
		c-0.595,0-1.073,0.215-1.426,0.646C621.164,134.079,620.984,134.8,620.984,135.799L620.984,135.799z M633.873,129.892h4.931
		l2.514,8.111l2.33-8.111h4.602l-4.833,13.023c-0.548,1.484-1.112,2.487-1.688,3.004c-0.811,0.737-2.045,1.104-3.705,1.104
		c-0.674,0-1.712-0.094-3.122-0.278l-0.364-3.259c0.67,0.215,1.422,0.321,2.248,0.321c0.548,0,0.995-0.125,1.335-0.376
		c0.341-0.255,0.631-0.705,0.866-1.355L633.873,129.892z"/>
	<path fill-rule="evenodd" clip-rule="evenodd" fill="#fff" d="M125.936,110.993L125.936,110.993v-0.51l-0.113-0.51l-0.113-0.51
		l-0.17-0.51l-0.283-0.51l-0.17-0.17l-0.227-0.17l-0.227-0.17l-0.227-0.113l-0.284-0.057h-0.283l0,0h-0.227l-0.17,0.057l-0.17,0.113
		l-0.17,0.113l-0.227,0.34l-0.17,0.454l0,0l0.113,0.34l0.227,0.34l0.567,0.624l0.227,0.283l0.227,0.284l0.17,0.34l0.057,0.34l0,0
		l0.283,0.113l0,0v0.227v0.113l0.113,0.283l0,0l-0.227,0.113h-0.17h-0.34l-0.51-0.17h-0.227h-0.113l-0.113,0.113l-0.34,0.34
		l-0.34,0.624l0,0l0.68,0.737l0.17,0.17l0.227,0.113l0.227,0.113l0.284,0.057l0,0l0.34,0.113l0.283-0.057l0.227-0.057l0.113-0.17
		l0.284-0.397l0.17-0.227l0.227-0.17l0,0l0.17-0.057l0.17-0.057l0.17-0.057l0.17-0.17l0,0l-0.51-1.19l0,0L125.936,110.993
		L125.936,110.993L125.936,110.993z M122.08,114.792L122.08,114.792l-0.17,0.397l0,0l0.567,0.794l0.283,0.397l0.34,0.34l0.34,0.284
		l0.51,0.284l0.51,0.17l0.681,0.057l0,0l0.17-0.17l0.17-0.284l0.17-0.624l0,0l-0.68-0.51l-0.794-0.51l-0.907-0.397l-0.907-0.34l0,0
		l-0.113,0.17L122.08,114.792L122.08,114.792L122.08,114.792z M126.9,116.889L126.9,116.889l0.227,0.85l0.057,0.454v0.453l0,0
		l0.284,0.057l0,0l0.17-0.17l0.113-0.17l0.113-0.283v-0.283v-0.567l-0.057-0.397l0,0l-0.057-0.737l-0.057-0.737l0.057-0.737
		l0.113-0.851l0.17-0.794l0.227-0.794l0.34-0.794l0.397-0.794l0,0l0.284-0.057l0.34,0.057l0,0l0.057,0.227l0.114,0.227l0.227,0.453
		l0.227,0.454l0.057,0.283v0.227l0,0l0.057,0.113l0,0l0.17,0.057l0,0l0.17-0.737l0.113-0.737v-0.34l-0.057-0.34l-0.057-0.34
		l-0.17-0.284l0,0l-0.113-0.113l-0.17-0.17l-0.454-0.17l0,0l-0.227-0.057l-0.227-0.057h-0.227l-0.17,0.057l-0.17,0.113l-0.227,0.114
		l-0.284,0.283l-0.283,0.454l-0.227,0.453l-0.454,1.077l0,0l-0.397,1.984l0,0l0.057,0.397v0.397l-0.057,0.737l-0.057,0.794v0.397
		L126.9,116.889L126.9,116.889L126.9,116.889z M126.956,119.157L126.956,119.157l-0.17,0.34l0,0l0.057,0.907l0,0l0.624,0.567l0,0
		l0.34,0.453l0.34,0.397l0.34,0.227l0.34,0.17h0.17h0.17l0.17-0.057l0.113-0.17l0.113-0.17l0.113-0.227l0.114-0.34l0.057-0.397l0,0
		l-0.681-0.397l-0.737-0.454l-0.68-0.397l-0.624-0.453l0,0H126.956L126.956,119.157L126.956,119.157z M135.801,117.286
		L135.801,117.286l0.227,0.34l0.283,0.397l0.227,0.453l0.227,0.51l0.113,0.51v0.567l-0.057,0.227l-0.057,0.283l-0.113,0.227
		l-0.17,0.284l0,0l-0.227-0.113l0,0l-0.17,0.227l0,0l-0.794-0.227l0,0l0.057-0.17l0,0l0.397-0.113l0.34-0.227l0,0l-0.17-0.567
		l-0.113-0.567l-0.17-0.567v-0.51l0,0l-0.51-0.34l-0.454-0.284l-0.397-0.283l-0.397-0.17l0,0l-0.057,0.057l0,0l-0.567,2.324
		l-0.51,2.041l0,0l-0.34,0.113l0,0l-0.17,0.17l0,0l-0.284-0.17l0,0l0.057-0.284v-0.227v-0.284l-0.057-0.227l0,0l0.113-0.907
		l0.113-0.907l0.17-0.907l0.34-0.964l0,0l-0.17-0.284l0,0l-0.17-0.057h-0.17l-0.227,0.057h-0.283l-0.227-0.057l-0.227-0.057l0,0
		l-0.34-0.567l-0.17-0.283l-0.284-0.284l0,0h-0.17l0,0l-0.17,0.227l-0.227,0.17h-0.227l-0.34-0.113l0,0l-0.057-0.227v-0.227
		l0.057-0.34l0.057-0.34l0.113-0.34l0.113-0.34l0.17-0.227l0.17-0.227l0,0l0.17-0.113l0.227-0.057h0.227l0.227,0.057l0,0
		l0.057,0.283l0.113,0.17l0.17,0.17l0.17,0.227l0,0l0.227,0.511l0.113,0.227l0.17,0.227l0.17,0.113l0.227,0.113l0.34,0.057
		l0.397-0.057l0,0l0.34-0.794l0.454-0.964l0.227-0.454l0.283-0.34l0.284-0.283l0.17-0.057l0.17-0.057l0,0l0.567,0.284l0,0
		l0.17,0.567l0,0l-0.567,1.19l-0.397,0.794l-0.17,0.454l0,0l0.113,0.227l0.113,0.17l0.397,0.397l0.397,0.34L135.801,117.286
		L135.801,117.286z"/>
	<polygon fill-rule="evenodd" clip-rule="evenodd" fill="#fff" points="48.999,122.049 48.999,122.049 49.113,122.219 
		49.113,122.219 48.943,122.502 48.829,122.786 48.716,123.126 48.659,123.466 48.546,124.317 48.546,125.167 48.659,126.868 
		48.716,128.172 48.716,128.172 48.035,128.739 48.035,128.739 47.242,127.718 46.902,127.208 46.675,126.698 46.675,126.698 
		46.675,126.528 46.675,126.244 46.788,125.507 47.015,124.6 47.299,123.579 47.922,121.652 48.376,120.405 48.376,120.405 
		48.376,120.348 48.376,120.348 47.809,120.348 47.242,120.405 46.165,120.518 45.087,120.631 44.577,120.688 44.01,120.631 
		44.01,120.631 43.783,120.575 43.613,120.518 43.216,120.291 42.819,120.064 42.423,119.894 42.423,119.894 42.026,119.781 
		41.686,119.611 41.515,119.497 41.402,119.327 41.232,119.157 41.119,118.874 41.119,118.874 41.232,118.874 41.459,118.93 
		41.912,119.101 42.479,119.327 42.819,119.441 42.819,119.441 43.443,119.554 44.067,119.554 44.747,119.554 45.484,119.441 
		46.845,119.214 48.149,118.874 48.149,118.874 48.602,118.76 48.999,118.533 49.339,118.25 49.453,118.08 49.509,117.91 
		49.509,117.91 49.056,117.683 48.716,117.4 48.319,117.059 47.979,116.606 47.979,116.606 48.092,115.982 48.149,115.359 
		48.149,115.359 48.886,115.415 49.283,115.472 49.566,115.585 49.566,115.585 49.906,115.756 50.246,115.982 50.984,116.549 
		51.381,116.833 51.778,117.059 52.118,117.173 52.401,117.23 52.401,117.23 52.685,117.173 52.968,117.116 53.535,116.833 
		54.102,116.493 54.669,116.039 55.292,115.642 55.86,115.245 56.427,114.962 56.71,114.848 56.993,114.792 56.993,114.792 
		57.844,115.189 57.844,115.189 57.901,116.039 57.901,116.039 57.447,116.379 56.993,116.719 56.03,117.286 55.066,117.74 
		54.612,118.023 54.272,118.307 54.272,118.307 54.272,118.42 54.272,118.42 54.725,118.874 55.236,119.384 55.406,119.668 
		55.576,119.951 55.69,120.235 55.633,120.461 55.633,120.461 55.576,120.745 55.406,120.858 55.236,120.972 55.009,120.972 
		54.782,120.915 54.499,120.801 53.875,120.518 53.251,120.121 52.628,119.781 51.834,119.214 51.834,119.214 51.494,119.384 
		51.097,119.497 50.133,119.724 49.68,119.838 49.283,120.008 49.056,120.178 48.999,120.291 48.999,120.405 48.999,120.405 
		49.283,120.631 49.509,120.972 49.509,120.972 49.509,121.198 49.396,121.482 49.283,121.765 48.999,122.049 	"/>
	<polygon fill-rule="evenodd" clip-rule="evenodd" fill="#fff" points="65.328,135.089 65.328,135.089 64.931,135.032 
		64.591,135.032 63.91,134.976 63.57,134.919 63.23,134.862 62.89,134.749 62.493,134.578 62.493,134.578 62.606,134.409 
		62.606,134.409 62.663,134.295 62.663,134.295 63.117,134.352 63.57,134.352 63.967,134.295 64.307,134.182 65.101,133.955 
		65.498,133.955 65.895,133.955 65.895,133.955 66.348,132.991 66.575,132.481 66.745,131.971 66.745,131.971 66.689,131.914 
		66.689,131.914 66.235,132.027 65.668,132.197 65.384,132.197 65.045,132.141 64.761,132.084 64.477,131.857 64.477,131.857 
		64.307,131.8 64.194,131.63 64.08,131.46 64.08,131.234 64.08,131.234 64.08,131.007 64.137,130.78 64.364,130.326 64.704,129.873 
		65.101,129.476 65.895,128.682 66.235,128.285 66.462,127.945 66.462,127.945 66.462,127.888 66.462,127.888 65.895,127.775 
		65.498,127.662 65.328,127.548 65.214,127.435 65.158,127.208 65.158,126.925 65.158,126.925 65.271,126.641 65.328,126.528 
		65.441,126.414 65.441,126.414 65.725,126.244 66.065,126.131 66.462,126.074 66.802,126.074 67.596,126.017 68.333,125.961 
		68.333,125.961 68.559,125.847 68.786,125.677 68.956,125.394 69.126,125.11 69.466,124.43 69.75,123.863 69.75,123.863 
		70.317,123.976 70.544,124.09 70.827,124.26 70.827,124.26 70.771,124.6 70.771,124.884 70.771,125.167 70.827,125.337 
		70.941,125.507 71.054,125.621 71.338,125.791 71.621,125.961 71.961,126.188 72.075,126.301 72.188,126.471 72.301,126.698 
		72.415,126.925 72.415,126.925 72.018,127.321 71.678,127.492 71.338,127.605 71.054,127.605 70.374,127.548 69.977,127.492 
		69.466,127.548 69.466,127.548 69.013,127.718 68.559,127.945 68.106,128.285 67.709,128.682 66.915,129.589 66.235,130.383 
		66.235,130.383 66.235,130.497 66.235,130.497 66.632,130.553 67.029,130.553 67.312,130.497 67.596,130.326 67.879,130.1 
		68.049,129.816 68.219,129.419 68.389,129.022 68.389,129.022 68.729,129.079 69.183,129.249 69.183,129.249 69.126,129.532 
		69.126,129.76 69.183,129.93 69.296,130.1 69.466,130.326 69.693,130.723 69.693,130.723 69.466,131.007 69.126,131.177 
		68.786,131.347 68.446,131.404 68.446,131.404 68.333,131.63 68.163,131.857 67.822,132.367 67.652,132.651 67.482,132.934 
		67.369,133.218 67.369,133.501 67.369,133.501 67.426,133.728 67.426,133.728 67.709,133.785 67.993,133.898 68.163,134.011 
		68.276,134.239 68.276,134.239 68.163,134.805 68.163,134.805 67.766,134.919 67.369,134.976 67.029,135.089 66.745,135.146 
		66.745,135.146 66.575,135.429 66.462,135.769 66.292,136.45 66.065,137.187 65.895,137.527 65.725,137.81 65.725,137.81 
		65.611,137.924 65.555,137.98 65.441,138.037 65.328,138.15 65.328,138.15 65.384,138.264 65.384,138.264 69.41,140.191 
		69.41,140.191 69.523,140.305 69.58,140.475 69.58,140.645 69.523,140.872 69.523,140.872 68.956,141.212 68.956,141.212 
		68.616,141.155 68.219,141.099 67.199,140.985 66.689,140.872 66.235,140.758 65.782,140.588 65.441,140.362 65.441,140.362 
		63.514,138.547 62.55,137.64 61.529,136.733 61.529,136.733 61.132,136.506 60.679,136.279 60.225,136.166 59.715,136.053 
		58.751,135.883 58.297,135.769 57.901,135.599 57.901,135.599 57.901,135.316 57.901,135.316 58.071,135.202 58.241,135.146 
		58.581,135.089 58.978,135.032 59.091,134.976 59.261,134.862 59.261,134.862 59.261,134.068 59.261,133.445 59.375,132.991 
		59.545,132.651 59.771,132.311 60.055,131.971 60.395,131.574 60.792,131.007 60.792,131.007 60.906,130.837 60.962,130.61 
		60.962,130.156 60.906,129.76 60.962,129.532 61.076,129.363 61.076,129.363 61.246,129.249 61.472,129.249 61.643,129.249 
		61.869,129.363 62.323,129.532 62.663,129.816 62.663,129.816 62.72,130.213 62.663,130.44 62.606,130.78 62.606,130.78 
		62.209,131.007 61.869,131.234 61.472,131.46 61.132,131.687 60.792,131.971 60.509,132.311 60.282,132.821 60.168,133.445 
		60.168,133.445 60.565,134.578 60.849,135.259 61.076,135.656 61.076,135.656 61.303,135.826 61.699,136.109 62.89,136.79 
		64.024,137.47 64.591,137.697 64.591,137.697 64.534,137.64 64.534,137.64 64.534,137.357 64.591,137.016 64.817,136.393 
		65.045,135.769 65.328,135.089 	"/>
	<path fill-rule="evenodd" clip-rule="evenodd" fill="#fff" d="M86.759,141.382L86.759,141.382l-0.057-0.227l-0.057-0.34v-0.737
		l0,0l0.453-0.227l0.51-0.284l0.284-0.057l0.227-0.113h0.284l0.284,0.057l0,0v-0.227l0.17-0.057v-0.794l0,0l-0.51-0.113h-0.284
		l-0.113,0.057l-0.057,0.057h-0.907l0,0l0.113-1.587l0,0l0.34-0.454l0.397-0.397l0.454-0.397l0.397-0.397l0,0l0.453-0.624
		l0.453-0.737l0.397-0.68l0.284-0.68l0,0l0.113-0.34l0.057-0.34l0.057-0.34l-0.057-0.34l-0.057-0.34l-0.057-0.283l-0.113-0.283
		l-0.17-0.227l-0.17-0.227l-0.227-0.17l-0.227-0.17l-0.284-0.113l-0.284-0.057h-0.283h-0.34l-0.34,0.113l0,0l-0.34,0.113l-0.34,0.17
		l-0.567,0.454l-0.624,0.397l-0.567,0.397v0.34l0,0h-0.113l-0.113,0.113l-0.227,0.227l-0.057,0.283v0.113v0.17l0,0l0.114,0.057
		l0.17,0.057l0,0l0.51-0.227l0.454-0.283l0.85-0.624l0.51-0.283l0.51-0.227l0.624-0.17h0.794l0,0l0.283,0.34l0,0l0.056,0.283v0.284
		l-0.113,0.624l-0.17,0.624l-0.284,0.624l-0.34,0.567l-0.34,0.51l-0.397,0.397l-0.34,0.284l0,0l-0.227-0.17l0,0l0.113-0.397
		l0.283-0.454l0.113-0.227l0.17-0.17l0.17-0.113l0.227-0.057l0,0v-0.453v-0.454l0,0l-0.284-0.17l-0.113-0.113l-0.057-0.17h-0.34
		v-0.283l0,0l-0.68-0.283h-0.113l0,0l-0.057,0.283l-0.057,0.227l-0.17,0.397l-0.227,0.34l-0.227,0.227l-0.227,0.283l-0.17,0.227
		l-0.113,0.284v0.17v0.17l0,0l0.113,0.17l0.17,0.113l0.34,0.227l0.17,0.113l0.057,0.17v0.17l-0.17,0.227l0,0v0.057l-0.057,0.17
		l-0.227,0.227l0,0l-0.113,0.057l-0.113,0.057h-0.227h-0.17l-0.057,0.113l-0.113,0.113h-0.17l0,0l-0.113-2.381l0,0l-0.51-0.227
		h-0.284l0,0l-0.227,0.227l-0.17,0.283l-0.227,0.454l-0.17,0.454l-0.113,0.51l-0.057,0.454v0.453l0.057,0.227l0.113,0.17l0,0
		l0.057,0.113l0.227,0.057v0.227l0,0l0.51,0.227l0,0l0.227-0.057l0.17-0.057l0.113-0.17l0.113-0.113l0,0l0.567,0.17h0.34h0.397l0,0
		l0.057,0.454l-0.057,0.454l-0.113,0.397l-0.17,0.397l-0.227,0.283l-0.284,0.227l-0.283,0.227l-0.34,0.057l0,0v0.284l0.057,0.17
		l0.057,0.17l0.114,0.113l0.284,0.227l0.283,0.283l0,0l-0.227,1.02l0,0l-0.284,0.057l-0.284,0.057l-0.567,0.17l-0.453,0.227
		l-0.227,0.057l-0.284,0.057l0,0v0.227l0.057,0.17l0.17,0.17l0.113,0.17l0.17,0.283l0,0l1.871-0.397l0.964-0.113h0.51l0.51,0.057
		l0,0l0.453,0.057l0.397,0.17l0.454,0.057h0.227h0.227l0,0l0.17-0.057l0.17-0.113l0.227-0.227l0.227-0.284l0.113-0.113l0.17-0.057
		l0,0l-0.057-0.283l-0.057-0.17l-0.17-0.17l-0.17-0.17l-0.17-0.113l-0.227-0.057l-0.567-0.057h-0.624h-0.624h-0.567H86.759
		L86.759,141.382L86.759,141.382z M83.584,137.81v0.227l-0.624,1.304l-0.85,1.757l-0.51,0.85l-0.454,0.737l-0.284,0.283
		l-0.227,0.227l-0.227,0.17l-0.283,0.057l0,0l-0.284-0.227l0,0l0.057-0.624l0.057-0.624l0.114-0.567l0.17-0.51l0.283-1.02
		l0.114-0.51v-0.567l0,0l-0.057-0.113l0,0l-0.454,0.51l0,0l-0.737,0.17l-0.34-0.057h-0.17l-0.17-0.114l0,0l-0.113-0.057
		l-0.057-0.113l-0.113-0.34v-0.34l0.057-0.397l0.113-0.397l0.113-0.34l0.113-0.227l0.113-0.17l0,0l0.227-0.113l0.227-0.113
		l0.51-0.057l0.51-0.113h0.227l0.227-0.113l0,0l0.567-2.438l0,0l0,0l0,0l-0.51,0.057l-0.397,0.113l-0.397,0.113h-0.284l-0.284-0.057
		l0,0l-0.283-0.34l0,0v-0.567l0.283-0.283l0.34-0.284l0.397-0.17l0.454-0.17l0.907-0.34l0.454-0.17l0.397-0.17l0,0h0.34h0.113
		l0.113,0.113l0,0l0.17,0.17l0,0v0.397l-0.113,0.34l-0.17,0.284l-0.227,0.283l-0.397,0.51l-0.227,0.34l-0.227,0.284l0,0
		l-0.624,2.268l0,0v0.17v0.17l0.113,0.34l0.057,0.34v0.17v0.227l0,0l-0.17,0.51l-0.17,0.51l-0.397,1.077l-0.227,0.51l-0.113,0.624
		l-0.113,0.624l-0.057,0.68l0,0l0.283-0.227l0.284-0.227l0.453-0.567l0.397-0.624l0.34-0.68l0.284-0.624l0.397-0.681l0.397-0.567
		l0.227-0.283l0.284-0.227l0,0H83.584L83.584,137.81z M79.558,138.547L79.558,138.547l0.284-0.227l0.284-0.34l0.227-0.34l0.17-0.397
		l0,0l-0.17-0.057l-0.227-0.057l0,0l-0.34,0.283l-0.34,0.284l-0.17,0.17l-0.057,0.227v0.227l0.113,0.283l0,0L79.558,138.547
		L79.558,138.547z"/>
	<polygon fill-rule="evenodd" clip-rule="evenodd" fill="#fff" points="100.876,132.764 100.876,132.764 101.386,132.651 
		101.84,132.537 102.237,132.537 102.634,132.594 102.917,132.764 103.144,133.048 103.371,133.388 103.541,133.898 
		103.541,133.898 103.314,134.635 102.974,135.429 102.804,135.769 102.577,136.109 102.293,136.393 102.01,136.62 102.01,136.62 
		102.067,136.733 102.18,136.79 102.18,136.79 102.577,136.733 102.917,136.62 103.597,136.336 103.597,136.336 104.618,136.053 
		105.412,135.883 106.092,135.883 106.829,135.939 106.829,135.939 106.886,136.223 106.886,136.506 106.886,136.733 
		106.829,136.96 106.602,137.413 106.376,137.867 106.376,137.867 105.752,137.924 105.071,138.094 104.391,138.264 
		103.767,138.491 102.464,139.001 101.386,139.511 101.386,139.511 100.819,139.851 100.536,139.965 100.253,140.021 
		100.253,140.021 99.629,140.418 99.005,140.872 98.721,141.042 98.438,141.212 98.098,141.325 97.701,141.382 97.701,141.382 
		97.474,141.155 97.304,140.985 97.134,140.702 97.021,140.305 97.021,140.305 97.588,139.511 98.211,138.774 98.211,138.774 
		98.551,138.547 98.892,138.377 99.288,138.264 99.686,138.094 99.686,138.094 100.082,137.867 100.423,137.64 100.649,137.413 
		100.876,137.187 101.16,136.62 101.443,135.939 101.443,135.939 101.727,135.429 101.783,135.089 101.783,134.749 101.783,134.749 
		101.67,134.635 101.67,134.635 101.386,134.805 101.16,134.976 100.706,135.429 100.423,135.656 100.139,135.769 99.742,135.826 
		99.345,135.826 99.345,135.826 99.062,135.599 99.005,135.429 98.892,135.202 98.892,135.202 99.005,134.805 99.175,134.465 
		99.402,134.182 99.686,133.898 100.309,133.388 100.593,133.104 100.876,132.764 	"/>
	<polygon fill-rule="evenodd" clip-rule="evenodd" fill="#fff" points="117.771,124.487 117.771,124.487 118.055,124.827 
		118.112,125.054 118.055,125.224 118.055,125.224 118.055,125.507 117.941,125.734 117.828,125.961 117.715,126.131 
		117.318,126.414 116.978,126.755 116.581,127.095 116.467,127.265 116.297,127.492 116.241,127.775 116.184,128.058 
		116.241,128.399 116.297,128.852 116.297,128.852 116.411,129.306 116.467,129.532 116.581,129.76 116.581,129.76 117.091,129.589 
		117.545,129.589 117.941,129.703 118.282,129.816 119.019,130.213 119.359,130.326 119.813,130.44 119.813,130.44 120.55,130.44 
		121.287,130.44 122.704,130.383 124.121,130.27 125.652,130.213 125.652,130.213 125.766,130.497 125.766,130.497 125.482,130.667 
		125.256,130.893 125.142,131.12 124.972,131.347 124.802,131.8 124.688,131.971 124.518,132.197 124.518,132.197 124.008,132.537 
		123.498,132.764 122.988,132.878 122.477,132.878 121.967,132.821 121.457,132.651 120.947,132.424 120.38,132.141 
		119.415,131.574 118.452,130.95 117.545,130.383 117.091,130.156 116.694,130.043 116.694,130.043 116.467,130.213 
		116.467,130.213 116.638,130.893 116.751,131.517 116.694,132.084 116.638,132.651 116.467,133.161 116.297,133.671 
		115.957,134.749 115.957,134.749 115.844,135.202 115.73,135.486 115.56,135.713 115.39,135.996 115.163,136.166 114.88,136.336 
		114.54,136.336 114.54,136.336 114.313,136.336 114.086,136.223 114.086,136.223 114.2,136.166 114.2,136.166 114.767,134.692 
		114.993,134.011 115.22,133.331 115.334,132.651 115.39,131.914 115.39,131.12 115.277,130.213 115.277,130.213 115.447,130.1 
		115.447,130.1 114.937,129.306 114.937,129.306 114.937,129.306 114.937,129.306 114.54,129.703 114.143,129.986 113.689,130.27 
		113.236,130.44 113.236,130.44 112.839,130.156 112.669,129.986 112.555,129.703 112.555,129.703 113.633,128.455 114.2,127.775 
		114.71,127.095 114.71,127.095 114.483,126.698 114.37,126.244 114.143,125.451 113.973,124.6 113.689,123.749 113.689,123.749 
		113.576,123.466 113.406,123.183 113.009,122.672 112.612,122.219 112.499,121.992 112.442,121.822 112.442,121.822 
		112.442,121.425 112.442,121.425 113.122,121.085 113.122,121.085 113.349,121.198 113.633,121.312 113.916,121.425 
		114.143,121.595 114.143,121.595 114.483,122.049 114.71,122.502 114.937,123.069 115.05,123.693 115.22,124.827 115.39,125.791 
		115.39,125.791 115.617,125.904 115.617,125.904 115.617,125.791 115.617,125.791 116.127,125.564 116.638,125.167 117.204,124.77 
		117.771,124.487 	"/>
	<path fill-rule="evenodd" clip-rule="evenodd" fill="#fff" d="M88.687,21.754L88.687,21.754l-1.644,0.057l-1.701,0.057
		l-1.644,0.113l-1.644,0.113l-1.644,0.227l-1.587,0.227l-1.644,0.227l-1.587,0.34l-1.588,0.34l-1.531,0.397l-1.531,0.397
		l-1.588,0.453l-1.474,0.511l-1.531,0.51l-1.474,0.567L63.4,26.913l-1.417,0.624l-1.474,0.624l-1.361,0.737l-1.417,0.737
		l-1.361,0.737l-1.361,0.794l-1.304,0.85l-1.304,0.85l-1.304,0.907L49.85,34.68l-1.247,0.964l-1.247,0.964l-1.19,1.021l-1.134,1.021
		l-1.134,1.077l-1.134,1.077l-1.077,1.134l-1.077,1.134l-1.02,1.134l-1.021,1.191l-0.964,1.247L36.64,47.89l-0.907,1.247
		l-0.907,1.304l-0.85,1.304l-0.85,1.304l-0.794,1.361l-0.737,1.361l-0.737,1.417l-0.737,1.417l-0.624,1.418l-0.68,1.417
		l-0.567,1.474l-0.567,1.474l-0.51,1.531l-0.51,1.531l-0.454,1.531l-0.454,1.531l-0.34,1.587l-0.34,1.531l-0.34,1.588l-0.227,1.644
		L24.28,78.45l-0.227,1.644l-0.113,1.644l-0.113,1.644l-0.057,1.701l-0.057,1.644l0,0l0.057,1.701l0.057,1.644l0.113,1.644
		l0.113,1.644l0.227,1.644l0.227,1.644l0.227,1.587l0.34,1.588l0.34,1.587l0.34,1.587l0.454,1.531l0.454,1.531l0.51,1.531
		l0.51,1.474l0.567,1.474l0.567,1.474l0.68,1.474l0.624,1.418l0.737,1.417l0.737,1.361l0.737,1.418l0.794,1.304l0.85,1.361
		l0.85,1.304l0.907,1.304l0.907,1.247l0.964,1.247l0.964,1.191l1.021,1.191l1.02,1.191l1.077,1.134l1.077,1.134l1.134,1.077
		l1.134,1.021l1.134,1.077l1.19,0.964l1.247,1.02l1.247,0.907l1.248,0.964l1.304,0.85l1.304,0.907l1.304,0.794l1.361,0.794
		l1.361,0.794l1.417,0.737l1.361,0.68l1.474,0.68l1.417,0.624l1.474,0.624l1.474,0.567l1.531,0.51l1.474,0.51l1.588,0.454
		l1.531,0.397l1.531,0.397l1.588,0.34l1.587,0.283l1.644,0.283l1.587,0.227l1.644,0.17l1.644,0.17l1.644,0.113l1.701,0.057h1.644
		l0,0h1.701l1.644-0.057l1.644-0.113l1.644-0.17l1.644-0.17l1.644-0.227l1.588-0.283l1.587-0.283l1.587-0.34l1.587-0.397
		l1.531-0.397l1.531-0.454l1.531-0.51l1.474-0.51l1.474-0.567l1.474-0.624l1.474-0.624l1.417-0.68l1.417-0.68l1.361-0.737
		l1.418-0.794l1.304-0.794l1.361-0.794l1.304-0.907l1.304-0.85l1.247-0.964l1.247-0.907l1.191-1.02l1.19-0.964l1.191-1.077
		l1.134-1.021l1.077-1.077l1.134-1.134l1.02-1.134l1.077-1.191l0.964-1.191l1.021-1.191l0.907-1.247l0.964-1.247l0.85-1.304
		l0.907-1.304l0.794-1.361l0.794-1.304l0.794-1.418l0.737-1.361l0.68-1.417l0.68-1.418l0.624-1.474l0.624-1.474l0.51-1.474
		l0.567-1.474l0.51-1.531l0.453-1.531l0.397-1.531l0.397-1.587l0.34-1.587l0.284-1.588l0.283-1.587l0.227-1.644l0.17-1.644
		l0.17-1.644l0.113-1.644l0.057-1.644v-1.701l0,0v-1.644l-0.057-1.701l-0.113-1.644l-0.17-1.644l-0.17-1.644l-0.227-1.587
		l-0.283-1.644l-0.284-1.588l-0.34-1.531l-0.397-1.587l-0.397-1.531l-0.453-1.531l-0.51-1.531l-0.567-1.531l-0.51-1.474
		l-0.624-1.474l-0.624-1.417l-0.68-1.418l-0.68-1.417l-0.737-1.417l-0.794-1.361l-0.794-1.361l-0.794-1.304l-0.907-1.304
		l-0.85-1.304l-0.964-1.247l-0.907-1.247l-1.021-1.247l-0.964-1.191l-1.077-1.134l-1.02-1.134l-1.134-1.134l-1.077-1.077
		l-1.134-1.077l-1.191-1.021l-1.19-1.021l-1.191-0.964l-1.247-0.964l-1.247-0.907l-1.304-0.907l-1.304-0.85l-1.361-0.85
		l-1.304-0.794l-1.418-0.737l-1.361-0.737l-1.417-0.737l-1.417-0.624l-1.474-0.624l-1.474-0.624l-1.474-0.567l-1.474-0.51
		l-1.531-0.511l-1.531-0.453l-1.531-0.397l-1.587-0.397l-1.587-0.34l-1.587-0.34l-1.588-0.227l-1.644-0.227l-1.644-0.227
		l-1.644-0.113l-1.644-0.113l-1.644-0.057L88.687,21.754L88.687,21.754L88.687,21.754z M88.687,148.299L88.687,148.299h-1.588
		l-1.588-0.057l-1.531-0.113l-1.587-0.17l-1.531-0.17l-1.531-0.17l-1.531-0.284l-1.531-0.283l-1.474-0.34l-1.474-0.34l-1.474-0.397
		l-1.474-0.454l-1.417-0.454l-1.417-0.51l-1.417-0.511l-1.361-0.567l-1.417-0.624l-1.361-0.624l-1.304-0.68l-1.304-0.68
		l-1.304-0.737l-1.304-0.737l-1.247-0.794l-1.248-0.794l-1.191-0.85l-1.191-0.907l-1.191-0.907l-1.134-0.907l-1.134-0.964
		l-1.134-0.964l-1.077-1.02l-1.077-1.021l-1.02-1.077l-0.964-1.077l-1.021-1.077l-0.964-1.134l-0.907-1.134l-0.907-1.191
		l-0.85-1.191l-0.85-1.247l-0.794-1.191l-0.794-1.304l-0.794-1.247l-0.681-1.304l-0.737-1.304l-0.624-1.361l-0.68-1.361
		l-0.567-1.361l-0.567-1.418l-0.567-1.361l-0.454-1.417l-0.51-1.474l-0.397-1.417l-0.397-1.474l-0.397-1.474l-0.283-1.531
		l-0.34-1.474l-0.227-1.531l-0.227-1.531l-0.17-1.588l-0.113-1.531l-0.113-1.588l-0.057-1.587l-0.057-1.587l0,0l0.057-1.587
		l0.057-1.588l0.113-1.531l0.113-1.587l0.17-1.531l0.227-1.531l0.227-1.531l0.34-1.531l0.283-1.474l0.397-1.474l0.397-1.474
		l0.397-1.474l0.51-1.417l0.454-1.417l0.567-1.418l0.567-1.361l0.567-1.417l0.68-1.304l0.624-1.361l0.737-1.304l0.681-1.304
		l0.794-1.304l0.794-1.248l0.794-1.247l0.85-1.191l0.85-1.191l0.907-1.191l0.907-1.134l0.964-1.134l1.021-1.134l0.964-1.077
		l1.02-1.02l1.077-1.077l1.077-0.964l1.134-1.021l1.134-0.907l1.134-0.964l1.191-0.907l1.191-0.85l1.191-0.851l1.248-0.794
		l1.247-0.794l1.304-0.794l1.304-0.68l1.304-0.737l1.304-0.624l1.361-0.681l1.417-0.567l1.361-0.567l1.417-0.567l1.417-0.454
		l1.417-0.51l1.474-0.397l1.474-0.397l1.474-0.397l1.474-0.283l1.531-0.284l1.531-0.283l1.531-0.227l1.531-0.17l1.587-0.113
		l1.531-0.113l1.588-0.057h1.588l0,0h1.587l1.587,0.057l1.587,0.113l1.531,0.113l1.531,0.17l1.587,0.227l1.474,0.283l1.531,0.284
		l1.474,0.283l1.531,0.397l1.418,0.397l1.474,0.397l1.417,0.51l1.474,0.454l1.361,0.567l1.417,0.567l1.361,0.567l1.361,0.681
		l1.304,0.624l1.361,0.737l1.304,0.68l1.248,0.794l1.247,0.794l1.247,0.794l1.247,0.851l1.191,0.85l1.191,0.907l1.134,0.964
		l1.134,0.907l1.077,1.021l1.077,0.964l1.077,1.077l1.02,1.02l1.021,1.077l0.964,1.134l0.964,1.134l0.907,1.134l0.907,1.191
		l0.907,1.191l0.85,1.191l0.794,1.247l0.794,1.248l0.737,1.304l0.737,1.304l0.68,1.304l0.68,1.361l0.624,1.304l0.624,1.417
		l0.567,1.361l0.51,1.418l0.51,1.417l0.453,1.417l0.454,1.474l0.397,1.474l0.34,1.474l0.34,1.474l0.284,1.531l0.227,1.531
		l0.227,1.531l0.17,1.531l0.17,1.587l0.113,1.531l0.057,1.588v1.587l0,0v1.587l-0.057,1.587l-0.113,1.588l-0.17,1.531l-0.17,1.588
		l-0.227,1.531l-0.227,1.531l-0.284,1.474l-0.34,1.531l-0.34,1.474l-0.397,1.474l-0.454,1.417l-0.453,1.474l-0.51,1.417l-0.51,1.361
		l-0.567,1.418l-0.624,1.361l-0.624,1.361l-0.68,1.361l-0.68,1.304l-0.737,1.304l-0.737,1.247l-0.794,1.304l-0.794,1.191
		l-0.85,1.247l-0.907,1.191l-0.907,1.191l-0.907,1.134l-0.964,1.134l-0.964,1.077l-1.021,1.077l-1.02,1.077l-1.077,1.021
		l-1.077,1.02l-1.077,0.964l-1.134,0.964l-1.134,0.907l-1.191,0.907l-1.191,0.907l-1.247,0.85l-1.247,0.794l-1.247,0.794
		l-1.248,0.737l-1.304,0.737l-1.361,0.68l-1.304,0.68l-1.361,0.624l-1.361,0.624l-1.417,0.567l-1.361,0.511l-1.474,0.51
		l-1.417,0.454l-1.474,0.454l-1.418,0.397l-1.531,0.34l-1.474,0.34l-1.531,0.283l-1.474,0.284l-1.587,0.17l-1.531,0.17l-1.531,0.17
		l-1.587,0.113l-1.587,0.057H88.687L88.687,148.299z"/>
	<polygon fill-rule="evenodd" clip-rule="evenodd" fill="#fff" points="119.756,84.913 127.693,84.913 127.693,84.913 
		127.58,83.099 127.41,81.341 127.126,79.583 126.729,77.883 126.333,76.182 125.822,74.481 125.256,72.893 124.575,71.249 
		123.838,69.718 123.101,68.188 122.251,66.714 121.343,65.296 120.38,63.879 119.359,62.518 118.282,61.214 117.148,59.967 
		115.957,58.719 114.71,57.585 113.406,56.508 112.102,55.431 110.685,54.467 109.267,53.503 107.793,52.653 106.319,51.859 
		104.731,51.122 103.144,50.442 101.556,49.818 99.912,49.308 98.211,48.854 96.51,48.457 94.753,48.174 92.995,47.89 
		92.995,46.246 92.995,46.246 92.825,46.19 92.201,46.02 91.635,45.906 90.898,45.849 89.934,45.792 88.743,45.736 88.743,45.736 
		87.496,45.792 86.532,45.849 85.739,45.906 85.172,45.963 84.548,46.133 84.378,46.19 84.378,47.947 84.378,47.947 82.62,48.174 
		80.863,48.457 79.162,48.854 77.461,49.308 75.817,49.875 74.229,50.442 72.642,51.122 71.111,51.859 69.58,52.653 68.106,53.56 
		66.689,54.467 65.328,55.431 63.967,56.508 62.663,57.585 61.416,58.776 60.282,59.967 59.148,61.214 58.014,62.518 56.993,63.879 
		56.03,65.296 55.122,66.714 54.329,68.188 53.535,69.718 52.798,71.306 52.174,72.893 51.607,74.481 51.097,76.182 50.644,77.883 
		50.303,79.583 50.02,81.341 49.793,83.099 49.68,84.913 57.617,84.913 57.617,84.913 57.73,83.496 57.901,82.135 58.127,80.774 
		58.467,79.47 58.808,78.166 59.204,76.862 59.658,75.615 60.112,74.367 60.679,73.177 61.303,71.986 61.926,70.852 62.663,69.718 
		63.4,68.641 64.194,67.564 64.988,66.6 65.895,65.58 66.802,64.672 67.766,63.765 68.729,62.858 69.75,62.064 70.827,61.271 
		71.905,60.534 73.038,59.853 74.172,59.23 75.363,58.606 76.554,58.096 77.801,57.585 79.105,57.132 80.352,56.735 81.656,56.452 
		83.017,56.168 84.378,55.941 84.378,55.941 84.378,58.889 84.378,58.889 84.321,59.286 84.094,59.626 83.867,60.024 83.527,60.364 
		83.187,60.647 82.79,60.931 82.45,61.101 82.167,61.214 82.167,61.214 81.146,61.498 80.182,61.838 79.218,62.178 78.255,62.575 
		77.291,63.028 76.384,63.482 75.476,63.935 74.626,64.502 73.775,65.069 72.982,65.636 72.131,66.26 71.394,66.884 70.601,67.564 
		69.92,68.301 69.183,69.038 68.559,69.775 67.879,70.569 67.312,71.419 66.689,72.213 66.178,73.12 65.668,73.971 65.158,74.878 
		64.704,75.785 64.307,76.749 63.967,77.713 63.627,78.676 63.287,79.697 63.06,80.718 62.833,81.738 62.663,82.759 62.493,83.836 
		62.436,84.913 69.466,84.913 69.466,84.913 69.58,84.006 69.75,83.099 69.92,82.192 70.147,81.341 70.43,80.491 70.771,79.64 
		71.111,78.846 71.451,78.053 71.905,77.259 72.358,76.522 72.812,75.785 73.322,75.048 73.889,74.367 74.456,73.744 75.023,73.12 
		75.703,72.497 76.327,71.93 77.007,71.363 77.744,70.852 78.425,70.399 79.218,69.945 79.955,69.492 80.749,69.151 81.6,68.811 
		82.45,68.471 83.3,68.188 84.151,67.961 85.001,67.791 85.909,67.621 86.816,67.507 87.78,67.451 88.687,67.451 88.687,67.451 
		89.65,67.451 90.557,67.507 91.465,67.621 92.372,67.791 93.279,67.961 94.129,68.188 94.979,68.471 95.83,68.811 96.624,69.151 
		97.418,69.492 98.211,69.945 98.948,70.399 99.686,70.852 100.366,71.363 101.046,71.93 101.727,72.497 102.35,73.12 
		102.974,73.744 103.541,74.367 104.051,75.048 104.561,75.785 105.071,76.522 105.525,77.259 105.922,78.053 106.319,78.846 
		106.659,79.64 106.942,80.491 107.226,81.341 107.453,82.192 107.679,83.099 107.793,84.006 107.906,84.913 114.993,84.913 
		114.993,84.913 114.88,83.836 114.767,82.759 114.54,81.738 114.37,80.718 114.086,79.697 113.803,78.733 113.463,77.769 
		113.122,76.805 112.669,75.842 112.272,74.935 111.762,74.027 111.252,73.177 110.741,72.326 110.174,71.476 109.55,70.682 
		108.927,69.889 108.246,69.151 107.566,68.414 106.886,67.677 106.149,66.997 105.355,66.373 104.561,65.75 103.767,65.126 
		102.917,64.559 102.067,64.049 101.16,63.539 100.253,63.085 99.345,62.688 98.381,62.291 97.418,61.894 96.454,61.611 
		95.49,61.327 95.49,61.327 95.15,61.157 94.753,60.987 94.356,60.761 93.902,60.477 93.562,60.137 93.279,59.74 93.052,59.286 
		92.995,59.059 92.995,58.833 92.995,58.833 92.995,55.941 92.995,55.941 94.356,56.168 95.66,56.395 97.021,56.735 98.268,57.132 
		99.572,57.585 100.819,58.096 102.01,58.606 103.201,59.23 104.334,59.853 105.468,60.534 106.546,61.271 107.623,62.064 
		108.643,62.858 109.664,63.709 110.571,64.616 111.478,65.58 112.385,66.544 113.236,67.564 113.973,68.641 114.767,69.718 
		115.447,70.852 116.071,71.986 116.694,73.177 117.261,74.367 117.771,75.615 118.225,76.862 118.622,78.166 118.962,79.47 
		119.245,80.774 119.472,82.135 119.642,83.496 119.756,84.913 	"/>
	<polygon fill-rule="evenodd" clip-rule="evenodd" fill="#fff" points="117.658,98.18 117.658,98.18 117.261,99.087 
		116.808,100.051 116.354,100.958 115.901,101.865 114.823,103.622 113.689,105.267 112.385,106.911 111.025,108.385 
		109.607,109.802 108.02,111.106 106.376,112.354 104.675,113.431 102.917,114.451 101.953,114.905 101.046,115.302 
		100.082,115.699 99.118,116.039 98.098,116.379 97.134,116.719 96.114,116.946 95.093,117.173 94.072,117.4 92.995,117.57 
		92.995,112.751 92.995,112.751 94.583,112.41 96.17,112.013 97.644,111.503 99.175,110.936 100.593,110.256 101.953,109.519 
		103.314,108.668 104.561,107.761 105.809,106.797 106.942,105.72 108.02,104.643 109.097,103.452 110.004,102.205 110.911,100.901 
		111.705,99.54 112.442,98.18 104.278,98.18 104.278,98.18 103.597,99.03 102.86,99.88 102.067,100.674 101.216,101.411 
		100.366,102.092 99.459,102.772 98.551,103.339 97.531,103.906 96.567,104.359 95.49,104.813 94.412,105.21 93.335,105.494 
		92.201,105.72 91.068,105.89 89.877,106.004 88.687,106.06 88.687,106.06 87.496,106.004 86.362,105.89 85.172,105.72 
		84.037,105.494 82.96,105.21 81.883,104.813 80.863,104.359 79.842,103.906 78.878,103.339 77.914,102.772 77.007,102.092 
		76.157,101.411 75.306,100.674 74.569,99.88 73.832,99.03 73.152,98.18 64.931,98.18 64.931,98.18 65.668,99.54 66.462,100.901 
		67.369,102.205 68.333,103.452 69.353,104.586 70.43,105.72 71.564,106.797 72.812,107.761 74.059,108.668 75.42,109.519 
		76.781,110.256 78.198,110.936 79.672,111.503 81.203,112.013 82.79,112.41 84.378,112.751 84.378,117.57 84.378,117.57 
		83.3,117.4 82.28,117.173 81.259,116.946 80.239,116.663 79.218,116.379 78.255,116.039 77.291,115.699 76.327,115.302 
		75.42,114.848 74.456,114.395 72.698,113.431 70.997,112.297 69.353,111.106 67.822,109.802 66.348,108.385 64.988,106.854 
		63.74,105.267 62.55,103.622 61.529,101.865 60.565,100.051 60.168,99.087 59.771,98.18 51.324,98.18 51.324,98.18 51.834,99.654 
		52.401,101.128 52.968,102.545 53.648,103.963 54.329,105.323 55.122,106.627 55.916,107.931 56.767,109.235 57.674,110.483 
		58.638,111.673 59.601,112.807 60.679,113.941 61.756,115.019 62.89,116.039 64.024,117.059 65.271,117.967 66.519,118.874 
		67.766,119.724 69.07,120.518 70.43,121.255 71.791,121.992 73.209,122.616 74.683,123.183 76.1,123.749 77.631,124.203 
		79.105,124.657 80.693,124.997 82.223,125.28 83.811,125.507 85.455,125.677 87.043,125.791 88.687,125.791 88.687,125.791 
		90.331,125.791 91.975,125.677 93.562,125.507 95.15,125.28 96.737,124.997 98.268,124.657 99.799,124.203 101.273,123.749 
		102.747,123.183 104.164,122.616 105.582,121.992 106.942,121.255 108.303,120.518 109.607,119.724 110.911,118.874 
		112.159,117.967 113.349,117.059 114.54,116.039 115.617,115.019 116.751,113.941 117.771,112.807 118.792,111.673 
		119.699,110.483 120.606,109.235 121.513,107.931 122.307,106.627 123.044,105.323 123.781,103.963 124.405,102.545 
		125.029,101.128 125.539,99.654 126.049,98.18 	"/>
	<polygon fill-rule="evenodd" clip-rule="evenodd" fill="#fff" points="94.356,88.088 94.356,88.088 94.356,88.088 
		94.356,88.088 93.619,88.144 92.882,88.201 92.258,88.371 91.691,88.598 91.124,88.825 90.671,89.051 90.274,89.335 89.877,89.619 
		89.31,90.186 88.913,90.696 88.687,91.036 88.63,91.149 88.63,91.149 88.233,90.582 87.78,90.129 87.326,89.675 86.872,89.335 
		86.362,89.051 85.909,88.768 85.398,88.598 84.945,88.428 84.094,88.201 83.357,88.088 82.847,88.088 82.563,88.088 82.563,88.088 
		82.563,88.088 49.68,88.088 49.68,88.088 49.736,89.845 49.963,91.546 50.19,93.304 50.53,95.004 83.3,95.004 83.3,95.004 
		83.244,94.948 83.244,94.948 83.811,95.004 84.378,95.118 85.058,95.288 85.795,95.572 86.532,95.969 87.269,96.479 87.609,96.819 
		88.006,97.159 88.29,97.556 88.63,98.009 88.63,98.009 88.913,97.556 89.254,97.102 89.764,96.592 90.444,96.082 90.841,95.798 
		91.294,95.572 91.805,95.345 92.372,95.175 92.995,95.061 93.675,94.948 93.675,94.948 93.675,95.004 126.9,95.004 126.9,95.004 
		127.183,93.304 127.466,91.546 127.637,89.845 127.75,88.088 	"/>
	<path fill-rule="evenodd" clip-rule="evenodd" fill="#fff" d="M44.123,97.896l-9.412,1.814l-0.397-1.984l0,0l-0.113-0.68
		l0.057-0.51l0,0l0.057-0.227l0.17-0.284l0.17-0.227l0.227-0.283l0,0l0.283-0.227l0.34-0.227l0.794-0.397l0,0l0.964-0.34
		l1.191-0.283l0,0l0.737-0.17l0.737-0.057h0.68l0.624,0.057l0,0l0.567,0.057l0.453,0.113l0.397,0.17l0.34,0.227l0,0l0.284,0.284
		l0.17,0.283l0.17,0.34l0.113,0.453L44.123,97.896L44.123,97.896z M42.876,97.329l-0.227-1.247l0,0l-0.113-0.34l-0.113-0.283
		l-0.17-0.227l-0.17-0.227l0,0l-0.227-0.113l-0.284-0.113l-0.284-0.113h-0.34l0,0l-0.567-0.057l-0.567,0.057l-0.567,0.057
		l-0.68,0.113l0,0l-0.68,0.113l-0.567,0.17l-0.51,0.227l-0.453,0.227l0,0l-0.34,0.227l-0.284,0.227l-0.17,0.227l-0.17,0.283l0,0
		v0.17l-0.057,0.227l0.057,0.567l0.283,1.247L42.876,97.329z"/>
	<path fill-rule="evenodd" clip-rule="evenodd" fill="#fff" d="M43.103,92.17l-9.752-1.701l-0.057-0.85l9.468-2.948l0.057,0.907
		l-2.892,0.85l0.17,2.438l2.948,0.51L43.103,92.17L43.103,92.17z M39.021,90.696l-0.113-1.985l-2.608,0.794l0,0l-1.985,0.51l0,0
		l0.907,0.057l0.964,0.17L39.021,90.696z"/>
	<polygon fill-rule="evenodd" clip-rule="evenodd" fill="#fff" points="42.819,85.593 33.238,85.027 33.238,84.233 
		41.742,84.743 41.912,81.851 43.046,81.908 	"/>
	<polygon fill-rule="evenodd" clip-rule="evenodd" fill="#fff" points="43.273,80.377 33.748,78.96 33.861,78.223 43.386,79.583 
			"/>
	<path fill-rule="evenodd" clip-rule="evenodd" fill="#fff" d="M43.5,78.393l-8.788-4.536l0.227-0.794l9.922-0.057l-0.227,0.85
		h-3.005l-0.567,2.381l2.665,1.304L43.5,78.393L43.5,78.393z M40.098,75.785l0.454-1.928L37.83,73.8l0,0l-2.041-0.113l0,0
		l0.851,0.397l0.85,0.397L40.098,75.785z"/>
	<polygon fill-rule="evenodd" clip-rule="evenodd" fill="#fff" points="45.201,71.986 36.243,68.414 36.526,67.677 
		44.747,67.621 37.717,64.786 37.944,64.105 46.902,67.677 46.618,68.414 38.454,68.471 45.484,71.306 	"/>
	<polygon fill-rule="evenodd" clip-rule="evenodd" fill="#fff" points="43.103,55.091 43.556,54.41 48.206,57.472 48.206,57.472 
		49.226,58.209 50.02,58.889 50.02,58.889 50.303,59.23 50.53,59.57 50.7,59.967 50.757,60.307 50.757,60.307 50.813,60.647 
		50.757,61.044 50.644,61.384 50.473,61.724 50.473,61.724 50.133,62.121 49.736,62.461 49.509,62.575 49.226,62.631 48.716,62.688 
		48.716,62.688 48.432,62.631 48.149,62.575 47.412,62.348 46.561,61.894 45.654,61.327 41.005,58.266 41.402,57.642 46.051,60.704 
		46.051,60.704 47.015,61.271 47.752,61.611 47.752,61.611 48.035,61.668 48.262,61.724 48.546,61.724 48.772,61.668 48.772,61.668 
		48.943,61.611 49.169,61.498 49.339,61.327 49.453,61.157 49.453,61.157 49.623,60.817 49.736,60.477 49.736,60.137 49.623,59.796 
		49.623,59.796 49.396,59.456 48.999,59.059 48.432,58.606 47.752,58.152 	"/>
	<polygon fill-rule="evenodd" clip-rule="evenodd" fill="#fff" points="52.685,58.322 45.428,51.973 45.938,51.349 
		53.648,54.014 47.979,49.024 48.489,48.457 55.69,54.808 55.179,55.431 47.468,52.766 53.138,57.756 	"/>
	<polygon fill-rule="evenodd" clip-rule="evenodd" fill="#fff" points="57.164,53.447 50.587,46.416 51.154,45.906 57.73,52.936 
			"/>
	<polygon fill-rule="evenodd" clip-rule="evenodd" fill="#fff" points="60.452,50.612 52.741,44.375 53.422,43.865 
		58.921,48.457 58.921,48.457 60.112,49.535 60.112,49.535 59.375,48.117 56.37,41.597 57.05,41.087 61.076,50.158 	"/>
	<polygon fill-rule="evenodd" clip-rule="evenodd" fill="#fff" points="63.91,48.117 59.091,39.783 62.777,37.628 63.343,38.592 
		60.338,40.35 61.813,42.901 64.591,41.257 65.214,42.278 62.38,43.865 64.024,46.7 67.142,44.942 67.709,45.906 	"/>
	<path fill-rule="evenodd" clip-rule="evenodd" fill="#fff" d="M69.126,45.169l-3.628-8.901l2.381-0.964l0,0l0.397-0.17
		l0.283-0.057h0.284h0.284l0,0l0.227,0.057l0.227,0.17l0.227,0.17l0.227,0.17l0,0l0.227,0.284l0.227,0.284l0.34,0.68l0,0l0.17,0.51
		l0.113,0.453l0.057,0.454l-0.057,0.397l0,0l-0.113,0.397l-0.17,0.34l-0.227,0.283l-0.284,0.227l0,0l0.34,0.17l0.283,0.17l0,0
		l0.567,0.397l0.51,0.51l1.928,2.041l-0.907,0.34l-1.474-1.531l0,0l-0.737-0.794l-0.51-0.397l0,0l-0.34-0.227l-0.284-0.113l0,0
		H69.41l-0.34,0.057l-0.85,0.34l1.644,3.968L69.126,45.169L69.126,45.169z M67.822,39.896l1.531-0.624l0,0l0.454-0.227l0.284-0.227
		l0,0l0.113-0.34l0.057-0.34l0,0v-0.453l-0.17-0.454l0,0l-0.17-0.34l-0.17-0.227l-0.17-0.227l-0.227-0.17l0,0l-0.227-0.057
		L68.9,36.154h-0.284l-0.283,0.113l-1.701,0.68L67.822,39.896z"/>
	<polygon fill-rule="evenodd" clip-rule="evenodd" fill="#fff" points="74.116,39.953 74.796,39.669 74.796,39.669 75.08,40.293 
		75.363,40.804 75.363,40.804 75.703,41.087 76.1,41.314 76.1,41.314 76.327,41.37 76.554,41.427 76.781,41.427 77.007,41.37 
		77.007,41.37 77.347,41.257 77.574,41.087 77.801,40.917 77.971,40.69 77.971,40.69 78.028,40.407 78.084,40.066 78.084,39.783 
		78.028,39.443 78.028,39.443 77.914,39.046 77.688,38.706 77.688,38.706 77.461,38.479 77.177,38.309 77.177,38.309 76.667,38.195 
		75.817,38.082 75.817,38.082 75.08,37.912 74.796,37.855 74.512,37.742 74.512,37.742 74.116,37.458 73.775,37.061 73.775,37.061 
		73.492,36.551 73.322,35.984 73.322,35.984 73.209,35.417 73.152,34.907 73.209,34.397 73.379,34 73.379,34 73.605,33.603 
		73.889,33.263 74.229,33.036 74.626,32.866 74.626,32.866 74.966,32.809 75.25,32.809 75.59,32.866 75.873,32.923 75.873,32.923 
		76.1,33.036 76.384,33.206 76.61,33.433 76.837,33.716 76.837,33.716 77.064,34 77.234,34.34 77.347,34.68 77.518,35.134 
		76.781,35.361 76.781,35.361 76.667,34.964 76.44,34.623 76.27,34.34 76.044,34.17 76.044,34.17 75.817,34 75.533,33.943 
		75.25,33.886 74.966,33.943 74.966,33.943 74.683,34.056 74.399,34.227 74.229,34.397 74.059,34.623 74.059,34.623 74.002,34.85 
		73.946,35.077 73.946,35.361 74.002,35.701 74.002,35.701 74.059,35.928 74.172,36.154 74.342,36.324 74.456,36.495 74.456,36.495 
		74.683,36.608 74.966,36.721 75.76,36.835 75.76,36.835 76.554,36.948 77.064,37.061 77.064,37.061 77.347,37.175 77.631,37.345 
		77.858,37.572 78.084,37.799 78.084,37.799 78.311,38.082 78.481,38.422 78.595,38.762 78.708,39.102 78.708,39.102 78.821,39.499 
		78.878,39.896 78.878,40.293 78.821,40.633 78.821,40.633 78.765,41.03 78.651,41.314 78.481,41.597 78.311,41.881 78.311,41.881 
		78.084,42.051 77.858,42.278 77.574,42.391 77.234,42.504 77.234,42.504 76.724,42.561 76.27,42.561 75.76,42.391 75.363,42.107 
		75.363,42.107 74.966,41.711 74.626,41.2 74.342,40.633 74.116,39.953 	"/>
	<polygon fill-rule="evenodd" clip-rule="evenodd" fill="#fff" points="81.089,41.541 79.615,32.016 80.352,31.902 81.883,41.37 
			"/>
	<polygon fill-rule="evenodd" clip-rule="evenodd" fill="#fff" points="85.228,41.03 84.661,32.526 82.733,32.696 82.62,31.562 
		87.326,31.222 87.383,32.356 85.455,32.469 86.022,40.974 	"/>
	<polygon fill-rule="evenodd" clip-rule="evenodd" fill="#fff" points="90.898,40.917 91.124,36.891 89.197,31.165 
		90.161,31.222 91.124,34.227 91.124,34.227 91.635,35.871 91.635,35.871 92.372,34.227 93.675,31.449 94.583,31.505 91.918,36.891 
		91.691,40.974 	"/>
	<path fill-rule="evenodd" clip-rule="evenodd" fill="#fff" d="M98.495,37.061L98.495,37.061l0.34-1.077l0.397-0.964l0.227-0.397
		l0.227-0.397l0.283-0.34l0.284-0.284l0,0l0.283-0.227l0.284-0.227l0.284-0.17l0.283-0.113l0.284-0.057l0.284-0.057h0.283
		l0.284,0.057l0,0l0.34,0.113l0.34,0.227l0.284,0.283l0.283,0.284l0,0l0.17,0.397l0.17,0.454l0.113,0.51l0.057,0.567l0,0
		l0.057,0.624l-0.057,0.68l-0.113,0.68l-0.17,0.737l0,0l-0.284,0.964l-0.34,0.85l-0.454,0.737l-0.453,0.624l0,0l-0.34,0.283
		l-0.283,0.227l-0.284,0.227l-0.283,0.113l-0.283,0.113l-0.34,0.057l-0.283-0.057h-0.34l0,0l-0.283-0.113l-0.284-0.17l-0.227-0.17
		l-0.227-0.227l-0.17-0.283l-0.17-0.284l-0.17-0.397l-0.113-0.397l0,0l-0.113-0.737v-0.85l0.057-0.85L98.495,37.061L98.495,37.061
		L98.495,37.061z M99.288,37.288L99.288,37.288l-0.17,0.85l-0.057,0.737v0.624l0.113,0.624l0,0l0.17,0.51l0.284,0.34l0.283,0.284
		l0.397,0.17l0,0l0.397,0.057l0.454-0.113l0.397-0.227l0.397-0.34l0,0l0.397-0.454l0.34-0.624l0.283-0.737l0.227-0.85l0,0
		l0.17-0.624l0.057-0.567l0.057-0.51v-0.567l0,0l-0.057-0.34l-0.057-0.34l-0.113-0.34l-0.17-0.283l0,0l-0.17-0.284l-0.17-0.17
		l-0.227-0.17l-0.284-0.057l0,0l-0.397-0.057l-0.454,0.113l-0.397,0.17l-0.397,0.34l0,0l-0.397,0.51l-0.34,0.624l-0.283,0.794
		L99.288,37.288L99.288,37.288z"/>
	<polygon fill-rule="evenodd" clip-rule="evenodd" fill="#fff" points="103.881,43.411 107.453,34.453 111.138,35.928 
		110.685,37.005 107.736,35.814 106.659,38.592 109.21,39.613 108.757,40.633 106.205,39.669 104.618,43.695 	"/>
	<polygon fill-rule="evenodd" clip-rule="evenodd" fill="#fff" points="111.989,47.21 116.354,39.953 114.71,38.932 
		115.277,37.969 119.302,40.407 118.678,41.37 117.034,40.35 112.669,47.607 	"/>
	<polygon fill-rule="evenodd" clip-rule="evenodd" fill="#fff" points="115.39,49.364 121.343,41.824 124.688,44.432 
		123.951,45.339 121.23,43.185 119.415,45.509 121.967,47.494 121.287,48.401 118.678,46.416 116.694,48.968 119.529,51.179 
		118.792,52.086 	"/>
	<polygon fill-rule="evenodd" clip-rule="evenodd" fill="#fff" points="125.312,53.787 125.652,54.58 125.652,54.58 
		124.972,55.034 124.405,55.317 123.838,55.545 123.271,55.658 123.271,55.658 122.817,55.601 122.364,55.545 121.967,55.317 
		121.627,55.034 121.627,55.034 121.343,54.751 121.173,54.41 121.06,54.07 121.003,53.673 121.003,53.673 121.06,53.277 
		121.173,52.823 121.343,52.313 121.57,51.803 121.57,51.803 121.91,51.236 122.307,50.725 122.817,50.158 123.328,49.591 
		123.328,49.591 123.895,49.081 124.462,48.627 125.029,48.287 125.539,48.004 125.539,48.004 126.049,47.777 126.559,47.607 
		127.013,47.55 127.41,47.55 127.41,47.55 127.807,47.607 128.204,47.72 128.544,47.89 128.827,48.174 128.827,48.174 
		129.054,48.514 129.224,48.854 129.338,49.251 129.338,49.705 129.338,49.705 129.224,50.215 129.054,50.669 128.77,51.236 
		128.43,51.803 127.693,51.406 127.693,51.406 127.92,51.009 128.147,50.669 128.26,50.272 128.317,49.988 128.374,49.648 
		128.317,49.364 128.204,49.138 128.033,48.911 128.033,48.911 127.807,48.741 127.58,48.571 127.296,48.514 127.013,48.457 
		127.013,48.457 126.729,48.457 126.389,48.514 126.049,48.684 125.652,48.854 125.652,48.854 125.256,49.081 124.802,49.364 
		124.348,49.761 123.895,50.158 123.895,50.158 123.271,50.839 122.761,51.462 122.364,52.029 122.137,52.596 122.137,52.596 
		122.024,53.106 122.024,53.56 122.137,53.957 122.364,54.297 122.364,54.297 122.647,54.467 122.874,54.58 123.214,54.637 
		123.554,54.637 123.554,54.637 123.951,54.58 124.405,54.41 124.859,54.127 125.312,53.787 	"/>
	<polygon fill-rule="evenodd" clip-rule="evenodd" fill="#fff" points="124.405,57.869 132.172,52.199 132.626,52.823 
		129.451,55.147 131.265,57.642 134.44,55.317 134.894,55.941 127.126,61.611 126.673,60.987 130.301,58.266 128.544,55.828 
		124.859,58.493 	"/>
	<polygon fill-rule="evenodd" clip-rule="evenodd" fill="#fff" points="128.09,63.142 136.595,58.606 136.935,59.286 
		131.719,65.58 138.409,62.008 138.749,62.688 130.245,67.224 129.905,66.487 135.121,60.193 128.43,63.765 	"/>
	<path fill-rule="evenodd" clip-rule="evenodd" fill="#fff" d="M135.347,67.054L135.347,67.054l1.134-0.34l1.02-0.17l0.454-0.057
		h0.454h0.397l0.397,0.057l0,0l0.34,0.113l0.34,0.113l0.283,0.113l0.283,0.17l0.227,0.227l0.17,0.227l0.17,0.227l0.113,0.284l0,0
		l0.057,0.34l0.057,0.397l-0.057,0.397l-0.17,0.397l0,0l-0.17,0.397l-0.283,0.397l-0.34,0.34l-0.454,0.397l0,0l-0.51,0.34
		l-0.567,0.34l-0.624,0.284l-0.68,0.283l0,0l-1.021,0.284l-0.907,0.227l-0.851,0.057l-0.794-0.057l0,0l-0.397-0.113l-0.34-0.057
		l-0.34-0.17l-0.283-0.17l-0.227-0.17l-0.227-0.227l-0.17-0.283l-0.113-0.284l0,0l-0.057-0.283l-0.057-0.34v-0.283l0.113-0.34
		l0.113-0.284l0.17-0.34l0.17-0.284l0.283-0.34l0,0l0.567-0.51l0.68-0.51l0.794-0.397L135.347,67.054L135.347,67.054L135.347,67.054
		z M135.631,67.847L135.631,67.847l-0.794,0.284l-0.681,0.397l-0.51,0.34l-0.454,0.453l0,0l-0.283,0.454l-0.17,0.397l-0.057,0.397
		l0.057,0.397l0,0l0.227,0.397l0.283,0.284l0.397,0.227l0.51,0.113l0,0l0.624,0.057l0.68-0.057l0.794-0.17l0.85-0.227l0,0
		l0.567-0.227l0.51-0.283l0.51-0.227l0.397-0.34l0,0l0.34-0.227l0.227-0.227l0.227-0.284l0.113-0.284l0,0l0.113-0.284l0.057-0.283
		v-0.284l-0.057-0.284l0,0l-0.227-0.34l-0.284-0.34l-0.397-0.17l-0.51-0.17l0,0l-0.624-0.057l-0.737,0.057l-0.794,0.227
		L135.631,67.847L135.631,67.847z"/>
	<polygon fill-rule="evenodd" clip-rule="evenodd" fill="#fff" points="133.136,75.331 142.548,73.347 142.718,74.084 
		134.44,75.898 135.064,78.733 133.93,78.96 	"/>
	<path fill-rule="evenodd" clip-rule="evenodd" fill="#fff" d="M138.862,79.754L138.862,79.754l1.134-0.057l1.02,0.113
		l0.907,0.17l0.397,0.113l0.34,0.17l0,0l0.34,0.17l0.283,0.227l0.283,0.17l0.17,0.227l0.17,0.284l0.113,0.227l0.113,0.284
		l0.057,0.283l0,0v0.397l-0.113,0.397l-0.17,0.34l-0.227,0.34l0,0l-0.284,0.34l-0.397,0.284l-0.397,0.284l-0.51,0.283l0,0
		l-0.624,0.17l-0.624,0.17l-0.68,0.113l-0.737,0.113l0,0l-1.021,0.057l-0.964-0.057l-0.794-0.17l-0.794-0.284l0,0l-0.34-0.17
		l-0.34-0.17l-0.227-0.227l-0.227-0.227l-0.227-0.283l-0.113-0.284l-0.113-0.284l-0.057-0.283l0,0v-0.34l0.057-0.283l0.113-0.283
		l0.113-0.284l0.227-0.284l0.227-0.283l0.283-0.227l0.34-0.227l0,0l0.68-0.397l0.794-0.283l0.85-0.227L138.862,79.754
		L138.862,79.754L138.862,79.754z M138.862,80.548L138.862,80.548l-0.794,0.113l-0.737,0.17l-0.624,0.227l-0.51,0.34l0,0
		l-0.397,0.34l-0.284,0.34l-0.17,0.397l-0.057,0.397l0,0l0.113,0.397l0.227,0.397l0.34,0.283l0.454,0.284l0,0l0.567,0.227
		l0.68,0.113h0.794h0.907l0,0l0.624-0.056l0.567-0.114l0.51-0.17l0.51-0.17l0,0l0.34-0.113l0.284-0.227l0.283-0.17l0.227-0.284l0,0
		l0.17-0.227l0.113-0.284l0.057-0.227v-0.283l0,0l-0.057-0.397l-0.227-0.397l-0.34-0.284l-0.454-0.284l0,0l-0.567-0.227
		l-0.737-0.113h-0.794H138.862L138.862,80.548z"/>
	<polygon fill-rule="evenodd" clip-rule="evenodd" fill="#fff" points="138.182,90.299 139.316,90.356 139.202,92.85 
		135.631,92.623 135.631,92.623 135.291,92.283 135.007,92 134.78,91.66 134.553,91.376 134.553,91.376 134.44,91.036 
		134.327,90.696 134.27,90.412 134.27,90.072 134.27,90.072 134.327,89.675 134.44,89.278 134.667,88.938 134.951,88.598 
		134.951,88.598 135.291,88.314 135.688,88.031 136.141,87.804 136.708,87.634 136.708,87.634 137.275,87.521 137.955,87.407 
		138.636,87.407 139.373,87.407 139.373,87.407 140.167,87.464 140.847,87.634 141.527,87.804 142.094,87.974 142.094,87.974 
		142.661,88.258 143.115,88.541 143.455,88.825 143.738,89.165 143.738,89.165 143.965,89.505 144.135,89.845 144.192,90.242 
		144.192,90.696 144.192,90.696 144.192,90.979 144.078,91.319 143.965,91.546 143.795,91.773 143.795,91.773 143.625,92 
		143.398,92.227 143.171,92.397 142.831,92.51 142.831,92.51 142.548,92.68 142.151,92.737 141.187,92.907 140.96,92.17 
		140.96,92.17 141.641,92.056 142.151,91.886 142.151,91.886 142.548,91.66 142.831,91.376 142.831,91.376 143.058,91.036 
		143.115,90.582 143.115,90.582 143.115,90.299 143.058,90.016 142.945,89.732 142.774,89.448 142.774,89.448 142.548,89.222 
		142.264,88.995 141.924,88.825 141.527,88.655 141.527,88.655 141.074,88.485 140.563,88.371 139.997,88.258 139.43,88.201 
		139.43,88.201 138.522,88.201 137.729,88.258 137.048,88.428 136.481,88.655 136.481,88.655 136.028,88.938 135.688,89.278 
		135.517,89.675 135.404,90.129 135.404,90.129 135.404,90.356 135.461,90.582 135.631,91.093 135.631,91.093 135.971,91.546 
		136.311,91.886 138.069,92 	"/>
	<polygon fill-rule="evenodd" clip-rule="evenodd" fill="#fff" points="133.646,95.742 137.672,96.592 143.568,95.515 
		143.341,96.422 140.28,96.989 140.28,96.989 138.579,97.216 138.579,97.216 140.11,98.236 142.661,99.937 142.434,100.788 
		137.502,97.329 133.533,96.535 	"/>
	<rect x="80.409" y="98.123" fill-rule="evenodd" clip-rule="evenodd" fill="#fff" width="1.077" height="5.386"/>
	<path fill-rule="evenodd" clip-rule="evenodd" fill="#fff" d="M87.78,100.164L87.78,100.164l-0.057-0.454l-0.113-0.397
		l-0.227-0.397l-0.284-0.34l-0.34-0.227l-0.34-0.227l-0.453-0.113l-0.454-0.057l0,0l-0.453,0.057l-0.454,0.113l-0.397,0.227
		l-0.283,0.227l-0.284,0.34l-0.227,0.397L83.3,99.711l-0.057,0.454l0,0l0.057,0.453l0.113,0.397l0.227,0.397l0.284,0.284
		l0.283,0.283l0.397,0.227l0.454,0.113l0.453,0.057l0,0l0,0l-0.68,1.19h1.191l1.304-2.098l0,0l0.17-0.284l0.17-0.34l0.057-0.34
		L87.78,100.164L87.78,100.164L87.78,100.164z M84.264,100.164L84.264,100.164V99.88l0.057-0.227l0.113-0.17l0.17-0.17l0.17-0.17
		l0.227-0.113l0.227-0.057l0.283-0.057l0,0l0.227,0.057l0.284,0.057l0.17,0.113l0.227,0.17l0.113,0.17l0.113,0.17l0.113,0.227v0.284
		l0,0v0.227l-0.113,0.227l-0.113,0.227l-0.113,0.17l-0.227,0.17l-0.17,0.113l-0.284,0.057h-0.227l0,0h-0.283l-0.227-0.057
		l-0.227-0.113l-0.17-0.17l-0.17-0.17l-0.113-0.227l-0.057-0.227V100.164L84.264,100.164z"/>
	<path fill-rule="evenodd" clip-rule="evenodd" fill="#fff" d="M98.721,100.164L98.721,100.164v-0.454l-0.17-0.397l-0.17-0.397
		l-0.283-0.34l-0.34-0.227l-0.397-0.227l-0.454-0.113l-0.454-0.057l0,0L96,98.009l-0.397,0.113l-0.397,0.227l-0.34,0.227
		l-0.283,0.34l-0.227,0.397l-0.113,0.397l-0.057,0.454l0,0l0.057,0.453l0.113,0.397l0.227,0.397l0.283,0.284l0.34,0.283l0.397,0.227
		L96,102.318l0.454,0.057l0,0l0,0l-0.68,1.19h1.191l1.304-2.098l0,0l0.227-0.284l0.113-0.34l0.113-0.34V100.164L98.721,100.164
		L98.721,100.164z M95.206,100.164L95.206,100.164V99.88l0.113-0.227l0.113-0.17l0.17-0.17l0.17-0.17L96,99.03l0.227-0.057
		l0.227-0.057l0,0l0.283,0.057l0.227,0.057l0.227,0.113l0.17,0.17l0.17,0.17l0.113,0.17l0.057,0.227v0.284l0,0v0.227l-0.057,0.227
		l-0.113,0.227l-0.17,0.17l-0.17,0.17l-0.227,0.113l-0.227,0.057h-0.283l0,0h-0.227L96,101.298l-0.227-0.113l-0.17-0.17l-0.17-0.17
		l-0.113-0.227l-0.113-0.227V100.164L95.206,100.164z"/>
	<polygon fill-rule="evenodd" clip-rule="evenodd" fill="#fff" points="93.392,101.355 92.768,101.355 92.768,99.427 
		91.691,99.427 91.691,101.355 89.82,101.355 91.521,97.783 90.501,97.783 88.063,102.489 91.691,102.489 91.691,103.679 
		92.768,103.679 92.768,102.489 93.392,102.489 	"/>
	<polygon fill-rule="evenodd" clip-rule="evenodd" fill="#fff" points="96,78.903 91.068,84.46 89.31,84.46 89.31,83.099 
		93.335,77.372 88.403,71.703 88.403,71.703 83.47,77.372 87.496,83.099 87.496,84.46 85.739,84.46 80.806,78.903 74.626,80.434 
		77.518,85.31 87.439,85.31 87.439,88.258 88.346,88.258 88.46,88.258 89.367,88.258 89.367,85.31 99.288,85.31 102.18,80.434 	"/>
	<path fill-rule="evenodd" clip-rule="evenodd" fill="#fff" d="M511.042,72.509c4.425,5.391,4.517-1.536,10.233,0.096
		c0.923,0.264,1.318,1.45,1.318,1.45l-0.659,1.846l-0.527,0.659c0,0-4.707,12.3-19.524,25.196c0,0-5.762,4.938,4.39,4.116
		c0,0,13.719-6.311,19.755-21.95c0,0,1.921-4.39,4.39-0.549c0,0,9.603,18.383,15.365,23.047c0,0,5.213,5.213,8.78,5.213
		c7.07,0.428,9.721-5.206,13.719-4.116l1.372-1.921c0,0-1.372-2.469-7.682-3.841c-6.311-1.372-26.615-15.091-28.809-21.95
		c0,0-4.939-2.47-3.567-7.957c0,0,1.098-5.213,5.488-5.213c0,0,7.408-3.567,11.249-3.567c3.841,0,3.567-4.116,3.567-4.116
		l-3.567-2.195l-11.524,0.274c0,0-0.823-1.372,0-2.744c0.823-1.372,2.744-7.134,2.744-7.134s4.664-9.054,2.469-14.542
		c-2.195-5.488-4.664-4.39-6.859-4.39c-2.195,0-3.841,3.018-3.841,3.018s1.921,3.293,1.921,5.487c0,2.195-1.372,7.957-1.098,10.426
		c0.274,2.469-3.292,16.188-8.231,16.462C514.693,65.921,504.571,64.622,511.042,72.509z"/>
	<path fill-rule="evenodd" clip-rule="evenodd" fill="#fff" d="M452.421,70.478c0,0-6.361-0.748-4.116-3.742
		c2.245-2.993,3.741-11.973,20.952-10.85c0,0,8.231,1.497,5.238,11.224l-9.886,9.26c-0.687,0.643-0.721,0.997,0.197,1.29
		c2.255,0.72,8.698,0.493,13.43,1.049c6.36,0.746,10.476,2.619,10.476,2.619s1.87,5.238-0.374,6.735
		c-2.245,1.496-29.558,0.748-32.551,2.619c-2.993,1.871-13.844,4.49-13.844,4.49l-4.116,1.497c0,0-5.238,0-5.612-3.741
		c-0.374-3.742,1.497-5.987,1.497-5.987s9.354-4.864,15.714-5.238c6.361-0.374,10.476-5.238,10.476-5.238l5.987-6.735
		c0,0-1.122-3.367-3.742-2.993c-2.619,0.374-5.612,3.367-5.612,3.367L452.421,70.478z"/>
	<path fill-rule="evenodd" clip-rule="evenodd" fill="#fff" d="M379.912,42.684c0,0,3.022,1.763,5.288,0.755
		c2.266-1.007,6.043-6.547,7.806-7.303c1.763-0.755,8.31-4.533,10.576-2.77c2.266,1.763,2.007,9.82,1,11.079
		c-1.007,1.259-5.281,10.576-5.281,10.576l-3.022,2.77l-0.755-1.511l0.252-1.763l2.518-3.777l1.259-4.029l-1.008-3.777h-4.533
		l-1.511,1.007l-2.014,3.525l-1.763,1.007h-2.518l-1.511,4.784c0,0,0.504,2.518,1.763,2.518c1.259,0,3.525,0.503,3.525,0.503
		l-1.007,2.77l-0.252,3.273l-4.281,2.015l-3.022-0.252l-0.755-11.835c0,0-3.777-1.511-4.784,1.007
		c-1.007,2.518-3.525,4.784-2.518,8.561c1.007,3.777-1.511,5.792,1.511,7.554c3.022,1.763,9.065,0.252,10.576,0.252
		c1.511,0,1.763,2.518,1.763,3.777c0,1.259-0.081,6.983-0.081,6.983s0.792,1.327-1.682,1.579c-2.474,0.252-7.051,2.015-5.792,3.525
		c1.259,1.511,1.259,3.273,1.259,3.273l4.952-0.467c0,0,0,2.518,0,4.029c0,1.51-1.678,3.992-1.678,3.992s-11.08,1.259-11.583,4.029
		c-0.504,2.77,2.77,3.525,2.77,3.525l6.295-0.503l24.174-0.504l4.532-2.518l-0.755-5.288c0,0-15.36,1.007-16.619-0.252
		c-1.259-1.259-1.847-1.474-2.35-3.489c-0.504-2.014,0-4.281,0-4.281l2.35-2.807c0,0,3.777-0.755,6.295-0.755
		c2.518,0,2.015-5.036,2.015-5.036l-9.317-1.007l0.252-8.562c0,0,1.511-3.41,3.525-4.921c2.014-1.511,9.82-11.698,9.82-11.698
		s6.799-12.339,4.029-18.382c-2.77-6.043-6.547-6.043-11.331-5.792c-4.784,0.252-15.864,7.554-16.62,9.569
		C380.919,39.662,379.912,42.684,379.912,42.684L379.912,42.684z M370.091,76.678l2.266-0.503l0.503,3.777
		c0,0-7.554,12.086-8.813,13.597c-1.259,1.511-5.288,9.065-6.547,10.072c-1.259,1.007-2.518,1.511-4.784,0.755
		c-2.266-0.755,0-3.022,0-3.022s7.05-9.065,10.072-13.346C365.811,83.729,370.091,76.678,370.091,76.678L370.091,76.678z
		 M354.569,70.324l-4.254,2.6c0,0-3.073,2.127-0.709,3.782c2.364,1.655,5.2,0.236,5.673-0.945
		C355.751,74.579,354.569,70.088,354.569,70.324L354.569,70.324z M349.695,53.26c-0.504-1.259-0.252-3.273,0.504-4.532
		c0.755-1.259,11.583-6.799,13.597-8.058c2.015-1.259,5.036-0.252,6.547,1.007c1.511,1.259,0.252,5.288-1.259,7.051
		c-1.511,1.763-2.518,2.77-4.281,7.302c-1.763,4.533-1.853,3.273-2.86,7.554c-1.008,4.281-0.413,5.54-0.665,8.058
		c-0.252,2.518,1.763,3.273,0.252,6.799c-1.511,3.525-2.518,4.281-2.518,4.281s-6.798,0.755-8.561,0.504
		c-1.763-0.252-2.518-2.266-5.288-4.533c-2.77-2.266,0.056-5.736,0.056-5.736s4.477-5.661,6.491-6.165
		c2.015-0.504,7.075-3.208,7.075-3.208s0.356-5.288,1.112-8.058c0.755-2.77-1.892-2.014-1.892-2.014h-2.518l-4.281,1.259
		L349.695,53.26z"/>
	<path fill-rule="evenodd" clip-rule="evenodd" fill="#fff" d="M270.859,61.698c0,0,4.939-0.549,6.31,2.744
		c1.372,3.292-1.646,5.213-2.469,6.585c-0.823,1.372-6.055,7.41-4.958,10.975c1.098,3.566,4.135,12.072,9.622,13.993
		c5.487,1.921,11.249,3.292,12.896,3.567c1.646,0.274,2.469,2.195,7.682,1.098l0.274-14.816c0,0-10.426,3.841-12.896,3.566
		c-2.47-0.274-1.921-2.469-1.921-2.469l13.444-6.585l2.47-2.469l0.274-9.054h-4.116c0,0-0.549,3.018-3.018,2.744
		c-2.469-0.274-7.957-3.018-7.957-3.018s0-8.231,1.372-9.054c1.372-0.823,4.116-3.567,4.664-6.585
		c0.549-3.018,1.097-7.134,1.097-7.134l-7.134,1.097l-1.92-2.744l0.549-2.195c0,0,13.444-7.408,14.816-8.506
		c1.372-1.098,1.921-3.018,1.921-3.018v-9.603l7.134-0.274l2.195,4.116l0.274,2.469l9.603,2.47l0.274,3.292l-1.646,3.292
		c0,0-12.073,3.293-13.17,5.762c-1.098,2.469-10.426,11.798-9.603,15.091c0.823,3.292,0.274,5.487,0.274,5.487l4.39-1.646
		l2.744-5.213l1.372-3.567c0,0,3.841-2.469,4.664,0c0.823,2.469,2.195,4.664,2.195,4.664l-0.549,3.018l-4.39,4.939l-0.549,9.603
		c0,0,8.506,1.098,7.134,3.841c-1.372,2.744-3.841,3.292-3.841,3.292l-3.567,2.469c0,0-1.921,13.718-0.823,16.737
		c1.097,3.018,5.762,3.567,9.055,4.116c3.292,0.549,9.329-1.646,10.975-1.372c1.646,0.274,4.664,4.39,4.664,4.39l-2.469,4.664
		c0,0-9.603,1.921-15.091,1.921s-18.932-9.329-26.34-11.249c-7.408-1.921-13.444-1.646-15.639-1.646c-2.195,0-8.506,0-8.506,0
		s-3.292-3.567,0.549-3.841c3.841-0.274,3.567-0.823,3.567-0.823l-0.549-4.939l-1.646-2.195c0,0-1.921-7.133,0-7.957
		c1.921-0.823,2.469-4.664,2.469-4.664c1.259-2.082,0.932-2.331,1.483-4.896v-1.396c-0.053-0.611-0.106-1.22-0.157-1.829
		c-0.598-1.29-1-1.724-1.874-2.031l1.097-3.567C268.938,63.069,270.859,61.698,270.859,61.698z"/>
	<path fill-rule="evenodd" clip-rule="evenodd" fill="#fff" d="M214.384,46.717c0,0,2.737-23.946,1.14-23.946
		c0.805-1.619-5.445-2.568-6.614,0.456c-1.169,3.024-3.877,5.245-3.877,24.858c0,0-4.105,5.245-5.702,5.473
		c-1.596,0.228-16.191,8.666-16.191,8.666s-2.459,4.753,2.72,5.598c1.109,0.179,1.096-0.1,2.069-0.353h9.578
		c0,0-0.007,2.557-1.057,6.757c-1.05,4.2-9.712,24.149-21.525,30.712c0,0-1.05,3.413,3.413,2.1c0,0,18.637-7.612,23.887-25.987
		c0,0,1.575-4.2,5.513,1.313l16.537,23.1c0,0,0.525,2.1,5.25,2.1c0,0,10.237,0.787,11.287-1.313c0,0-2.887-5.775-6.563-6.825
		c-3.675-1.05-21.525-16.275-23.362-21.262l-4.988-3.15l-0.262-3.675c0,0,1.05-11.813,11.813-14.962c0,0,11.812-1.575,12.075-5.775
		c0,0,1.313-4.725-8.137-4.725L214.384,46.717z"/>
	<path fill-rule="evenodd" clip-rule="evenodd" fill="#fff" d="M625.443,73.247c0,0,1.803,2.104,3.606,2.404
		c1.803,0.3,0.601,4.808-0.902,5.109c-1.502,0.3-3.606,1.503-3.606,1.503s-3.606,2.104-0.3,2.705
		c3.305,0.601,2.404,5.108,2.404,5.108s-21.636,2.104-24.341,7.513c0,0-1.503,2.404,4.808,2.104c0,0,17.73-5.709,20.434-2.404
		c0,0,0,12.02-6.31,14.124l-4.507,1.803l-3.005-1.803l-2.404,1.502c0,0,3.005,6.611,5.409,6.611c0,0,12.02,0.601,18.932-22.538
		l10.818-0.601c0,0,3.005,1.502,4.508,0.601c1.502-0.901,4.207-3.606,4.207-3.606s-3.606-4.508-6.311-4.508
		c-2.704,0-10.518-0.601-10.518-0.601l-3.005-0.601l-2.104-2.404l0.902-3.306l2.404-2.704l2.104-4.808l0.601-3.306
		c0,0-0.601-2.404-3.005-2.404c-2.404,0-9.917,2.104-9.917,2.104L625.443,73.247z"/>
	<path fill-rule="evenodd" clip-rule="evenodd" fill="#fff" d="M608.405,65.029l-1.002,4.005l10.013-4.339l13.35-4.673
		c0,0,10.68-2.67,13.684-2.336c3.004,0.334,9.679,2.003,7.343,4.339c-2.336,2.336-6.008,5.34-6.008,5.34l-2.336,2.336l5.007,0.334
		c0,0,5.113-2.517,7.009-4.673c1.425-1.621,2.645-3.224,3.05-3.99c1.56-2.948-1.984-6.573-3.037-6.922
		C651.348,53.073,628.368,46.579,608.405,65.029z"/>
	<path fill-rule="evenodd" clip-rule="evenodd" fill="#fff" d="M601.562,69.185c-0.24,2.178-0.011,6.922-0.5,9.862
		c-0.667,4.005-4.339,7.343-6.008,7.009c-1.669-0.334-6.342-2.67-4.339-5.006c2.003-2.336,2.336-8.01,2.336-8.01
		s5.682-2.548,8.026-4.084C601.311,68.861,601.591,68.869,601.562,69.185z"/>
	<path fill-rule="evenodd" clip-rule="evenodd" fill="#fff" d="M627.429,30.652l3.338,3.337l1.669,5.674l3.004-1.669l5.674-9.346
		l4.339-6.008l6.008,0.668l2.67,6.675l-4.339,8.01c0,0-14.018,9.679-16.688,9.679c-2.67,0-8.01-1.001-8.01-1.001
		s-5.006-4.673-4.673-7.677c0.334-3.004-1.335-10.013,1.669-9.012S627.429,30.652,627.429,30.652z"/>
	<path fill-rule="evenodd" clip-rule="evenodd" fill="#fff" d="M614.607,34.699l0.411,17.261c0,0,1.233,3.699-2.877,2.877
		c-4.11-0.822-4.932-1.233-5.343-4.932c-0.411-3.699-1.233-9.452,1.644-11.507C611.319,36.343,614.607,34.699,614.607,34.699z"/>
</g>
</svg>
